<svg width="100" height="32" viewBox="0 0 100 32" fill="none" xmlns="http://www.w3.org/2000/svg">
<path d="M1.724 30.36C4.38 30.36 10.172 24.568 14.3 17.592C14.172 17.688 14.012 17.784 13.852 17.88C9.884 20.6 1.468 27.544 1.468 30.136C1.468 30.328 1.532 30.36 1.724 30.36ZM27.516 29.56C30.14 29.56 32.188 26.648 32.188 23.736C32.444 24.28 32.54 24.792 32.54 25.304C32.54 28.76 30.812 30.904 27.964 30.904C26.332 30.904 25.564 28.856 25.564 27.256C25.564 23.96 26.46 20.152 27.804 16.504C25.564 18.168 23.356 19.544 21.596 20.376C21.212 20.376 19.836 19.448 19.836 19.032V19C20.252 17.272 20.412 15.096 20.412 12.952C20.412 11.416 20.348 9.848 20.22 8.44C18.716 19 8.06 30.84 1.66 30.84C1.148 30.84 0.636 30.456 0.636 29.976V29.944C0.636 26.68 9.148 19.704 13.692 17.624C14.012 17.464 14.3 17.368 14.492 17.272C17.084 12.824 18.972 7.928 18.972 3.768C18.972 3.256 18.3 3 18.3 3C14.524 3 5.404 6.904 5.404 10.36C5.404 10.616 5.468 10.744 5.756 10.744C6.396 10.744 8.86 10.2 9.532 10.2C11.58 10.2 12.06 10.968 12.06 11.768C12.06 12.184 11.932 12.6 11.804 12.92C11.804 11.384 11.26 11.192 10.3 11.192C9.532 11.192 7.26 11.544 6.204 11.544C4.828 11.544 3.804 10.904 3.804 9.944C3.804 5.432 13.948 2.136 17.82 2.136C18.588 2.136 19.164 2.392 19.58 2.904C21.18 3.16 22.332 7.928 22.332 13.208C22.332 15.096 22.204 17.016 21.884 18.84C23.932 17.528 26.46 15.704 28.956 13.688C31.804 7.352 35.772 2.136 38.364 2.136C38.876 2.136 39.388 2.52 39.388 3V3.032C39.388 5.656 35.612 9.976 31.228 13.752C29.052 18.52 27.26 23.928 27.26 28.184C27.26 28.728 27.292 29.56 27.516 29.56ZM32.956 10.232C36.156 7.288 38.556 4.44 38.556 2.84C38.556 2.648 38.492 2.616 38.3 2.616C37.564 2.616 35.26 5.816 32.956 10.232ZM40.458 14.776C40.458 14.36 40.906 13.528 40.906 13.144C40.906 12.792 40.746 12.632 40.49 12.632C38.634 12.632 36.426 19.096 36.426 20.664C36.426 21.016 36.49 21.496 36.746 21.496C36.938 21.496 37.738 20.504 38.794 19.064C39.562 18.008 41.194 15.608 41.194 15.512L40.714 15.16C40.554 15.032 40.458 14.936 40.458 14.776ZM40.298 20.376C39.466 21.496 38.346 22.84 37.45 22.84C35.658 22.84 34.57 21.208 34.57 19.384C34.57 15.8 38.282 11.16 40.138 11.16C41.386 11.16 42.026 12.824 42.154 14.04L42.698 13.144C43.178 12.28 43.562 11.64 43.69 11.64C43.818 11.64 44.746 12.152 44.746 12.728C44.746 12.728 42.122 19.384 42.122 20.888C42.122 21.528 42.218 21.912 42.474 21.912C42.986 21.912 47.402 14.232 47.402 14.232L47.882 14.776C47.882 14.776 43.786 23.128 42.666 23.128C41.386 23.128 40.298 21.592 40.298 20.472V20.376ZM48.8445 11.16C49.2285 11.16 49.9325 11.736 49.9325 12.248C49.9325 12.984 46.7005 18.552 46.7005 21.72C46.7005 22.104 46.7005 22.136 46.7965 22.136C47.3725 22.136 52.2045 14.232 52.2045 14.232L52.6845 14.776C52.6845 14.776 48.2045 23.352 46.9885 23.352C46.4125 23.352 44.8125 22.584 44.8125 20.664C44.8125 18.296 48.3325 11.16 48.8445 11.16ZM51.0205 6.584C51.4045 6.584 51.9485 7.576 51.9485 7.768C51.9485 8.216 50.9565 10.168 50.7325 10.168C50.7325 10.168 49.5165 9.592 49.5165 9.208C49.5165 8.632 50.7645 6.584 51.0205 6.584ZM54.2003 12.696C56.7923 10.008 60.2163 5.4 60.2163 2.84C60.2163 2.68 60.0883 2.36 59.9603 2.36C58.9363 2.36 56.1523 7.736 54.2003 12.696ZM53.4323 14.744C52.6003 17.016 52.0563 19.032 52.0563 20.056C52.0563 21.304 52.2483 22.04 52.6963 22.04C54.1043 22.04 58.8083 14.232 58.8083 14.232L59.2883 14.776C59.2883 14.776 55.0003 23.256 52.8883 23.256C50.7122 23.256 50.1363 21.176 50.1363 19C50.1363 14.776 55.9923 0.983999 59.6403 0.983999C60.4083 0.983999 61.0483 1.752 61.0483 2.84C61.0483 5.912 57.3363 11 53.4323 14.744ZM60.794 12.696C63.386 10.008 66.81 5.4 66.81 2.84C66.81 2.68 66.682 2.36 66.554 2.36C65.53 2.36 62.746 7.736 60.794 12.696ZM60.026 14.744C59.194 17.016 58.65 19.032 58.65 20.056C58.65 21.304 58.842 22.04 59.29 22.04C60.698 22.04 65.402 14.232 65.402 14.232L65.882 14.776C65.882 14.776 61.594 23.256 59.482 23.256C57.306 23.256 56.73 21.176 56.73 19C56.73 14.776 62.586 0.983999 66.234 0.983999C67.002 0.983999 67.642 1.752 67.642 2.84C67.642 5.912 63.93 11 60.026 14.744ZM69.0518 14.776C69.0518 14.36 69.4998 13.528 69.4998 13.144C69.4998 12.792 69.3398 12.632 69.0838 12.632C67.2278 12.632 65.0198 19.096 65.0198 20.664C65.0198 21.016 65.0838 21.496 65.3398 21.496C65.5318 21.496 66.3318 20.504 67.3878 19.064C68.1558 18.008 69.7878 15.608 69.7878 15.512L69.3078 15.16C69.1478 15.032 69.0518 14.936 69.0518 14.776ZM68.8918 20.376C68.0598 21.496 66.9398 22.84 66.0438 22.84C64.2518 22.84 63.1638 21.208 63.1638 19.384C63.1638 15.8 66.8758 11.16 68.7318 11.16C69.9798 11.16 70.6198 12.824 70.7478 14.04L71.2917 13.144C71.7718 12.28 72.1558 11.64 72.2838 11.64C72.4118 11.64 73.3398 12.152 73.3398 12.728C73.3398 12.728 70.7158 19.384 70.7158 20.888C70.7158 21.528 70.8118 21.912 71.0677 21.912C71.5798 21.912 75.9958 14.232 75.9958 14.232L76.4758 14.776C76.4758 14.776 72.3798 23.128 71.2598 23.128C69.9798 23.128 68.8918 21.592 68.8918 20.472V20.376ZM80.6703 14.52C78.9103 16.504 75.7743 21.72 75.3583 22.456C74.9103 23.224 74.6543 23.448 74.2063 23.448C73.5663 23.448 72.9902 23.096 72.9902 22.392C72.9902 21.624 76.4143 11.288 76.8943 11.288C77.3103 11.288 78.1423 12.12 78.1423 12.856C78.1423 13.752 76.7023 17.624 76.7023 17.624L76.8623 17.72C76.8623 17.72 81.3743 11.16 82.6223 11.16C83.0063 11.16 83.7103 11.736 83.7103 12.248C83.7103 12.568 82.4943 15.096 82.4943 16.152C82.4943 16.44 82.9423 16.824 83.3263 16.824C84.6703 16.824 86.2063 14.232 86.2063 14.232L86.6863 14.776C86.3343 15.352 84.4463 18.2 82.2383 18.2C81.1183 18.2 80.5103 17.016 80.5103 15.64C80.5103 15.416 80.6703 14.776 80.6703 14.52ZM89.5443 14.776C89.5443 14.36 89.9923 13.528 89.9923 13.144C89.9923 12.792 89.8323 12.632 89.5763 12.632C87.7203 12.632 85.5123 19.096 85.5123 20.664C85.5123 21.016 85.5763 21.496 85.8323 21.496C86.0243 21.496 86.8243 20.504 87.8802 19.064C88.6483 18.008 90.2803 15.608 90.2803 15.512L89.8003 15.16C89.6403 15.032 89.5443 14.936 89.5443 14.776ZM89.3843 20.376C88.5523 21.496 87.4323 22.84 86.5363 22.84C84.7443 22.84 83.6562 21.208 83.6562 19.384C83.6562 15.8 87.3683 11.16 89.2243 11.16C90.3123 11.16 90.9523 12.472 91.1763 13.624C92.3923 10.264 95.7203 3.256 97.9603 3.256C98.7283 3.256 99.3683 4.024 99.3683 5.112C99.3683 7.576 96.4243 11.608 93.2883 14.648C92.5203 16.664 91.2403 19.512 91.2403 20.888C91.2403 21.592 91.4323 22.04 91.9763 22.04C92.5523 22.04 97.4483 14.232 97.4483 14.232L97.9283 14.776C97.9283 14.776 93.3843 23.256 92.1683 23.256C90.6643 23.256 89.3843 21.656 89.3843 20.472V20.376ZM93.9603 12.696C96.0083 10.52 98.5363 7.032 98.5363 5.112C98.5363 4.952 98.4083 4.632 98.2803 4.632C97.5123 4.632 95.3683 9.272 93.9603 12.696Z" fill="#A77C4A"/>
</svg>
