<svg width="115" height="44" viewBox="0 0 115 44" fill="none" xmlns="http://www.w3.org/2000/svg">
<path d="M10.724 32.36C13.38 32.36 19.172 26.568 23.3 19.592C23.172 19.688 23.012 19.784 22.852 19.88C18.884 22.6 10.468 29.544 10.468 32.136C10.468 32.328 10.532 32.36 10.724 32.36ZM36.516 31.56C39.14 31.56 41.188 28.648 41.188 25.736C41.444 26.28 41.54 26.792 41.54 27.304C41.54 30.76 39.812 32.904 36.964 32.904C35.332 32.904 34.564 30.856 34.564 29.256C34.564 25.96 35.46 22.152 36.804 18.504C34.564 20.168 32.356 21.544 30.596 22.376C30.212 22.376 28.836 21.448 28.836 21.032V21C29.252 19.272 29.412 17.096 29.412 14.952C29.412 13.416 29.348 11.848 29.22 10.44C27.716 21 17.06 32.84 10.66 32.84C10.148 32.84 9.636 32.456 9.636 31.976V31.944C9.636 28.68 18.148 21.704 22.692 19.624C23.012 19.464 23.3 19.368 23.492 19.272C26.084 14.824 27.972 9.928 27.972 5.768C27.972 5.256 27.3 5 27.3 5C23.524 5 14.404 8.904 14.404 12.36C14.404 12.616 14.468 12.744 14.756 12.744C15.396 12.744 17.86 12.2 18.532 12.2C20.58 12.2 21.06 12.968 21.06 13.768C21.06 14.184 20.932 14.6 20.804 14.92C20.804 13.384 20.26 13.192 19.3 13.192C18.532 13.192 16.26 13.544 15.204 13.544C13.828 13.544 12.804 12.904 12.804 11.944C12.804 7.432 22.948 4.136 26.82 4.136C27.588 4.136 28.164 4.392 28.58 4.904C30.18 5.16 31.332 9.928 31.332 15.208C31.332 17.096 31.204 19.016 30.884 20.84C32.932 19.528 35.46 17.704 37.956 15.688C40.804 9.352 44.772 4.136 47.364 4.136C47.876 4.136 48.388 4.52 48.388 5V5.032C48.388 7.656 44.612 11.976 40.228 15.752C38.052 20.52 36.26 25.928 36.26 30.184C36.26 30.728 36.292 31.56 36.516 31.56ZM41.956 12.232C45.156 9.288 47.556 6.44 47.556 4.84C47.556 4.648 47.492 4.616 47.3 4.616C46.564 4.616 44.26 7.816 41.956 12.232ZM49.458 16.776C49.458 16.36 49.906 15.528 49.906 15.144C49.906 14.792 49.746 14.632 49.49 14.632C47.634 14.632 45.426 21.096 45.426 22.664C45.426 23.016 45.49 23.496 45.746 23.496C45.938 23.496 46.738 22.504 47.794 21.064C48.562 20.008 50.194 17.608 50.194 17.512L49.714 17.16C49.554 17.032 49.458 16.936 49.458 16.776ZM49.298 22.376C48.466 23.496 47.346 24.84 46.45 24.84C44.658 24.84 43.57 23.208 43.57 21.384C43.57 17.8 47.282 13.16 49.138 13.16C50.386 13.16 51.026 14.824 51.154 16.04L51.698 15.144C52.178 14.28 52.562 13.64 52.69 13.64C52.818 13.64 53.746 14.152 53.746 14.728C53.746 14.728 51.122 21.384 51.122 22.888C51.122 23.528 51.218 23.912 51.474 23.912C51.986 23.912 56.402 16.232 56.402 16.232L56.882 16.776C56.882 16.776 52.786 25.128 51.666 25.128C50.386 25.128 49.298 23.592 49.298 22.472V22.376ZM57.8445 13.16C58.2285 13.16 58.9325 13.736 58.9325 14.248C58.9325 14.984 55.7005 20.552 55.7005 23.72C55.7005 24.104 55.7005 24.136 55.7965 24.136C56.3725 24.136 61.2045 16.232 61.2045 16.232L61.6845 16.776C61.6845 16.776 57.2045 25.352 55.9885 25.352C55.4125 25.352 53.8125 24.584 53.8125 22.664C53.8125 20.296 57.3325 13.16 57.8445 13.16ZM60.0205 8.584C60.4045 8.584 60.9485 9.576 60.9485 9.768C60.9485 10.216 59.9565 12.168 59.7325 12.168C59.7325 12.168 58.5165 11.592 58.5165 11.208C58.5165 10.632 59.7645 8.584 60.0205 8.584ZM63.2003 14.696C65.7923 12.008 69.2163 7.4 69.2163 4.84C69.2163 4.68 69.0883 4.36 68.9603 4.36C67.9363 4.36 65.1523 9.736 63.2003 14.696ZM62.4323 16.744C61.6003 19.016 61.0563 21.032 61.0563 22.056C61.0563 23.304 61.2483 24.04 61.6963 24.04C63.1043 24.04 67.8083 16.232 67.8083 16.232L68.2883 16.776C68.2883 16.776 64.0003 25.256 61.8883 25.256C59.7122 25.256 59.1363 23.176 59.1363 21C59.1363 16.776 64.9923 2.984 68.6403 2.984C69.4083 2.984 70.0483 3.752 70.0483 4.84C70.0483 7.912 66.3363 13 62.4323 16.744ZM69.794 14.696C72.386 12.008 75.81 7.4 75.81 4.84C75.81 4.68 75.682 4.36 75.554 4.36C74.53 4.36 71.746 9.736 69.794 14.696ZM69.026 16.744C68.194 19.016 67.65 21.032 67.65 22.056C67.65 23.304 67.842 24.04 68.29 24.04C69.698 24.04 74.402 16.232 74.402 16.232L74.882 16.776C74.882 16.776 70.594 25.256 68.482 25.256C66.306 25.256 65.73 23.176 65.73 21C65.73 16.776 71.586 2.984 75.234 2.984C76.002 2.984 76.642 3.752 76.642 4.84C76.642 7.912 72.93 13 69.026 16.744ZM78.0518 16.776C78.0518 16.36 78.4998 15.528 78.4998 15.144C78.4998 14.792 78.3398 14.632 78.0838 14.632C76.2278 14.632 74.0198 21.096 74.0198 22.664C74.0198 23.016 74.0838 23.496 74.3398 23.496C74.5318 23.496 75.3318 22.504 76.3878 21.064C77.1558 20.008 78.7878 17.608 78.7878 17.512L78.3078 17.16C78.1478 17.032 78.0518 16.936 78.0518 16.776ZM77.8918 22.376C77.0598 23.496 75.9398 24.84 75.0438 24.84C73.2518 24.84 72.1638 23.208 72.1638 21.384C72.1638 17.8 75.8758 13.16 77.7318 13.16C78.9798 13.16 79.6198 14.824 79.7478 16.04L80.2917 15.144C80.7718 14.28 81.1558 13.64 81.2838 13.64C81.4118 13.64 82.3398 14.152 82.3398 14.728C82.3398 14.728 79.7158 21.384 79.7158 22.888C79.7158 23.528 79.8118 23.912 80.0677 23.912C80.5798 23.912 84.9958 16.232 84.9958 16.232L85.4758 16.776C85.4758 16.776 81.3798 25.128 80.2598 25.128C78.9798 25.128 77.8918 23.592 77.8918 22.472V22.376ZM89.6703 16.52C87.9103 18.504 84.7743 23.72 84.3583 24.456C83.9103 25.224 83.6543 25.448 83.2063 25.448C82.5663 25.448 81.9902 25.096 81.9902 24.392C81.9902 23.624 85.4143 13.288 85.8943 13.288C86.3103 13.288 87.1423 14.12 87.1423 14.856C87.1423 15.752 85.7023 19.624 85.7023 19.624L85.8623 19.72C85.8623 19.72 90.3743 13.16 91.6223 13.16C92.0063 13.16 92.7103 13.736 92.7103 14.248C92.7103 14.568 91.4943 17.096 91.4943 18.152C91.4943 18.44 91.9423 18.824 92.3263 18.824C93.6703 18.824 95.2063 16.232 95.2063 16.232L95.6863 16.776C95.3343 17.352 93.4463 20.2 91.2383 20.2C90.1183 20.2 89.5103 19.016 89.5103 17.64C89.5103 17.416 89.6703 16.776 89.6703 16.52ZM98.5443 16.776C98.5443 16.36 98.9923 15.528 98.9923 15.144C98.9923 14.792 98.8323 14.632 98.5763 14.632C96.7203 14.632 94.5123 21.096 94.5123 22.664C94.5123 23.016 94.5763 23.496 94.8323 23.496C95.0243 23.496 95.8243 22.504 96.8802 21.064C97.6483 20.008 99.2803 17.608 99.2803 17.512L98.8003 17.16C98.6403 17.032 98.5443 16.936 98.5443 16.776ZM98.3843 22.376C97.5523 23.496 96.4323 24.84 95.5363 24.84C93.7443 24.84 92.6562 23.208 92.6562 21.384C92.6562 17.8 96.3683 13.16 98.2243 13.16C99.3123 13.16 99.9523 14.472 100.176 15.624C101.392 12.264 104.72 5.256 106.96 5.256C107.728 5.256 108.368 6.024 108.368 7.112C108.368 9.576 105.424 13.608 102.288 16.648C101.52 18.664 100.24 21.512 100.24 22.888C100.24 23.592 100.432 24.04 100.976 24.04C101.552 24.04 106.448 16.232 106.448 16.232L106.928 16.776C106.928 16.776 102.384 25.256 101.168 25.256C99.6643 25.256 98.3843 23.656 98.3843 22.472V22.376ZM102.96 14.696C105.008 12.52 107.536 9.032 107.536 7.112C107.536 6.952 107.408 6.632 107.28 6.632C106.512 6.632 104.368 11.272 102.96 14.696Z" fill="#A77C4A"/>
</svg>
