<svg width="23" height="37" viewBox="0 0 23 37" fill="none" xmlns="http://www.w3.org/2000/svg">
<g clip-path="url(#clip0_220_1728)">
<path d="M19.1948 16.5829V11.0821C19.1954 10.8246 18.9868 10.6161 18.7289 10.6161C18.6004 10.6161 18.4842 10.6681 18.4001 10.7522C18.3154 10.8369 18.2639 10.9536 18.2634 11.0816V16.5824C18.2639 16.8398 18.4719 17.0478 18.7294 17.0483C18.9868 17.0478 19.1942 16.8403 19.1948 16.5829Z" fill="#A77C4A"/>
<path d="M17.1345 35.8681C17.7019 36.3224 18.4498 36.5727 19.242 36.5727C20.0342 36.5727 20.7826 36.3229 21.3495 35.8681C21.9475 35.3894 22.2774 34.7445 22.2774 34.0512C22.2774 33.3191 21.9067 32.6457 21.2486 32.167V23.7756C21.2491 23.7751 21.2486 23.7746 21.2486 23.7746L21.2231 0.657957C21.2231 0.462193 21.1002 0.28733 20.9157 0.221056C20.7449 0.159369 20.5547 0.202703 20.4283 0.329134C20.4181 0.33933 20.4089 0.349525 20.4003 0.360231C17.0335 4.39992 15.1799 9.53672 15.1799 14.8244L15.1804 23.7751C15.1794 23.8984 15.2293 24.0167 15.3165 24.1039C15.4042 24.1916 15.5214 24.2405 15.6453 24.24H17.2349L17.2354 32.1659C16.5778 32.6472 16.2076 33.3191 16.2081 34.0507C16.2081 34.744 16.536 35.3899 17.1345 35.8681ZM16.1108 23.3096V14.8244C16.1108 10.2025 17.5877 5.70146 20.2927 2.00843L20.3156 23.3096L19.3149 23.3091L17.6993 23.3096H16.1108ZM18.878 25.5354C19.06 25.3534 19.3552 25.3539 19.5367 25.5354C19.7182 25.7169 19.7187 26.0121 19.5367 26.1941C19.3547 26.3761 19.0595 26.3756 18.878 26.1941C18.6965 26.0126 18.696 25.7174 18.878 25.5354ZM18.7419 31.5159C18.7419 31.259 18.9504 31.0505 19.2073 31.0505C19.4648 31.05 19.6738 31.259 19.6733 31.5164C19.6738 31.7739 19.4653 31.9824 19.2078 31.9819C18.9504 31.9824 18.7414 31.7734 18.7419 31.5159Z" fill="#A77C4A"/>
</g>
<g clip-path="url(#clip1_220_1728)">
<path d="M3.13815 0.00368499C3.57826 0.00368499 3.55506 -0.405498 3.55506 7.39972C3.55506 13.2209 3.57441 14.5989 3.65541 14.68C3.77897 14.8035 3.99129 14.7996 4.11865 14.6723C4.18816 14.6027 4.21129 12.9583 4.21129 7.39972C4.21129 -0.38237 4.18816 0.00368881 4.61662 0.00753021C4.9679 0.00368881 5.45428 0.613579 5.86346 1.56312C6.58919 3.25388 7.1489 6.75509 7.37667 10.9896C7.5388 14.07 7.45005 14.8768 6.83627 15.9847C6.56222 16.4827 5.77859 17.2817 5.31926 17.5403L5.022 17.7063V18.8103C5.01811 19.5244 5.06837 20.3235 5.16481 21.0762C5.97929 27.3876 6.18004 32.1356 5.75925 35.104C5.62801 36.0459 5.72837 35.9996 3.88323 35.9996C2.03807 35.9996 2.13842 36.046 2.00718 35.104C1.58269 32.124 1.78725 27.3181 2.60162 21.0376C2.69814 20.3158 2.74839 19.5167 2.74454 18.8103V17.7063L2.44718 17.5403C1.98782 17.2817 1.20433 16.4826 0.930163 15.9847C0.663826 15.5022 0.436068 14.8344 0.358914 14.2862C0.254717 13.5489 0.347385 11.0321 0.567315 8.58095C0.968884 4.11082 1.62881 1.48206 2.62483 0.354943C2.92974 0.0191383 2.94513 0.00368499 3.13815 0.00368499ZM2.3894 2.65942C1.84121 4.4042 1.42812 7.30321 1.21587 10.897C1.0499 13.6725 1.11936 14.5372 1.56321 15.4289C1.83737 15.9731 2.5168 16.6679 3.02627 16.9228C3.21147 17.0153 3.40463 17.1311 3.4547 17.1814C3.52417 17.2509 3.55121 17.579 3.55506 18.4553L3.55891 19.6326H3.88321H4.20745L4.21132 18.4553C4.21521 17.579 4.24225 17.2509 4.31168 17.1814C4.36186 17.1312 4.55489 17.0154 4.74016 16.9228C5.24973 16.6679 5.92909 15.9731 6.20315 15.4289C6.53898 14.7533 6.63162 14.2515 6.62774 13.1359C6.6123 10.372 6.23016 6.39218 5.7592 4.16875C5.58938 3.33494 5.23422 2.12284 5.09909 1.8797C5.05663 1.80632 5.02574 4.30007 5.01802 8.26058C5.01415 13.5374 4.99489 14.7997 4.90994 14.9618C4.57023 15.618 3.72488 15.8072 3.17673 15.344C2.73289 14.9695 2.75609 15.3169 2.74826 8.26058C2.74057 4.30007 2.70968 1.8064 2.66726 1.8797C2.62854 1.94924 2.50128 2.30042 2.3894 2.65942Z" fill="#A77C4A"/>
</g>
<defs>
<clipPath id="clip0_220_1728">
<rect width="8" height="37" fill="white" transform="translate(15)"/>
</clipPath>
<clipPath id="clip1_220_1728">
<rect width="8" height="36" fill="white"/>
</clipPath>
</defs>
</svg>
