<svg width="33" height="32" viewBox="0 0 33 32" fill="none" xmlns="http://www.w3.org/2000/svg">
<g clip-path="url(#clip0_220_1728)">
<path d="M14.6922 14.4165L10.8026 10.5268C10.6209 10.3443 10.326 10.3444 10.1436 10.5268C10.0527 10.6176 10.0074 10.7366 10.0074 10.8555C10.0074 10.9753 10.0535 11.0942 10.1436 11.1851L14.0333 15.0747C14.2156 15.2564 14.5098 15.2564 14.6922 15.0747C14.8739 14.8923 14.8738 14.5989 14.6922 14.4165Z" fill="#A77C4A"/>
<path d="M26.8719 29.51C27.5944 29.4301 28.3002 29.0782 28.8604 28.518C29.4205 27.9579 29.7731 27.252 29.8524 26.5296C29.9367 25.7682 29.714 25.079 29.2238 24.5887C28.7061 24.071 27.9678 23.857 27.164 23.9839L21.2303 18.0502C21.2303 18.0495 21.2296 18.0495 21.2296 18.0495L4.86567 1.72163C4.72724 1.5832 4.51669 1.54646 4.33937 1.63006C4.17497 1.70721 4.07112 1.87235 4.07115 2.05112C4.07114 2.06555 4.07185 2.07926 4.07334 2.09291C4.54914 7.33009 6.87071 12.2731 10.6097 16.012L16.9391 22.3408C17.0256 22.4286 17.1445 22.477 17.2679 22.477C17.3919 22.477 17.5093 22.4287 17.5966 22.3408L18.7206 21.2167L24.3254 26.8208C24.2008 27.6262 24.4141 28.363 24.9318 28.88C25.422 29.3702 26.1106 29.5951 26.8719 29.51ZM17.2679 21.3537L11.2679 15.3538C7.99974 12.0856 5.86135 7.85854 5.16271 3.33445L20.2411 18.3805L19.5331 19.0877L18.3911 20.2305L17.2679 21.3537ZM20.7984 20.9709C20.7984 20.7135 21.0075 20.5051 21.2642 20.5051C21.5209 20.5051 21.73 20.7135 21.73 20.9709C21.73 21.2283 21.5209 21.4366 21.2642 21.4366C21.0075 21.4366 20.7984 21.2283 20.7984 20.9709ZM24.9311 25.296C24.7494 25.1143 24.7494 24.8194 24.9311 24.6378C25.1128 24.4554 25.4084 24.4554 25.59 24.6377C25.7724 24.8194 25.7724 25.1143 25.59 25.296C25.4084 25.4784 25.1128 25.4784 24.9311 25.296Z" fill="#A77C4A"/>
</g>
<g clip-path="url(#clip1_220_1728)">
<path d="M29.1156 2.66521C29.4268 2.97641 29.6998 2.67067 24.1807 8.18979C20.0645 12.306 19.1037 13.2941 19.1037 13.4087C19.1037 13.5834 19.2566 13.7308 19.4367 13.7308C19.535 13.7307 20.7142 12.5843 24.6447 8.65382C30.1475 3.15105 29.8581 3.40768 30.1584 3.71336C30.4095 3.95904 30.3221 4.73422 29.94 5.69498C29.2577 7.4037 27.1777 10.2752 24.3445 13.4305C22.281 15.7233 21.6477 16.2311 20.4303 16.5805C19.8844 16.7388 18.7653 16.7497 18.2577 16.6077L17.9301 16.5149L17.1494 17.2956C16.6417 17.7978 16.1122 18.3984 15.6482 18.9988C11.7613 24.0375 8.54589 27.5368 6.14937 29.3383C5.39054 29.9115 5.49425 29.9497 4.18954 28.645C2.88481 27.3403 2.92296 27.4441 3.49626 26.6852C5.30327 24.2778 8.8462 21.0242 13.863 17.159C14.4417 16.7169 15.0423 16.1874 15.539 15.6852L16.3197 14.9045L16.2268 14.5769C16.0848 14.0692 16.0959 12.9501 16.2541 12.4042C16.4069 11.8747 16.7181 11.2414 17.0512 10.7993C17.4988 10.2042 19.344 8.49011 21.2327 6.91239C24.6776 4.03549 27.003 2.64331 28.5043 2.55061C28.9573 2.52876 28.9792 2.52872 29.1156 2.66521ZM26.7083 4.01365C25.0869 4.85977 22.7449 6.61758 20.0536 9.00869C17.9737 10.8539 17.4114 11.5145 17.0947 12.4588C16.9038 13.0375 16.8929 14.0092 17.0729 14.5497C17.1385 14.7461 17.1932 14.9645 17.193 15.0355C17.193 15.1338 16.9801 15.3849 16.3632 16.0073L15.5334 16.8425L15.7627 17.0718L15.992 17.3011L16.8272 16.4713C17.4496 15.8544 17.7007 15.6415 17.799 15.6415C17.87 15.6415 18.0883 15.6961 18.2848 15.7616C18.8254 15.9417 19.7971 15.9308 20.3757 15.7398C21.0908 15.4995 21.5112 15.2102 22.2973 14.4186C24.2407 12.4533 26.7847 9.36894 28.0239 7.46372C28.4934 6.75404 29.0993 5.64582 29.1757 5.37835C29.1976 5.29643 27.4124 7.03794 24.6064 9.83298C20.8724 13.5615 19.9662 14.4405 19.7915 14.495C19.0873 14.7188 18.3558 14.2549 18.2957 13.5397C18.2467 12.9611 18.0174 13.2231 23.0014 8.22802C25.7965 5.42208 27.538 3.63695 27.4561 3.65878C27.3796 3.68057 27.0413 3.83891 26.7083 4.01365Z" fill="#A77C4A"/>
</g>
<defs>
<clipPath id="clip0_220_1728">
<rect width="8" height="37" fill="white" transform="translate(0 5.65685) rotate(-45)"/>
</clipPath>
<clipPath id="clip1_220_1728">
<rect width="8" height="36" fill="white" transform="translate(26.8994 0.443649) rotate(45)"/>
</clipPath>
</defs>
</svg>
