<svg width="22" height="22" viewBox="0 0 22 22" fill="none" xmlns="http://www.w3.org/2000/svg">
<path d="M19.9024 4.89723L16.2679 2.61498L10.3504 12.0395L13.9827 14.3195L19.9024 4.89723ZM9.79619 14.9375L9.71594 17.0787L11.6112 16.076L13.3737 15.146L9.86894 12.944L9.79619 14.9375ZM20.8722 1.42998L18.9724 0.235229C18.7427 0.0910801 18.4651 0.0440764 18.2007 0.104553C17.9363 0.165029 17.7067 0.328034 17.5624 0.557729L16.8124 1.74873L20.4447 4.03023L21.1947 2.84073C21.4947 2.36073 21.3522 1.72848 20.8722 1.42848V1.42998ZM17.8984 19.295C17.8984 19.5012 17.7297 19.67 17.5234 19.67H3.27344C3.17398 19.67 3.0786 19.6305 3.00827 19.5601C2.93795 19.4898 2.89844 19.3944 2.89844 19.295V5.04498C2.89844 4.94552 2.93795 4.85014 3.00827 4.77981C3.0786 4.70949 3.17398 4.66998 3.27344 4.66998H13.2064L14.6194 2.41998H3.27344C1.82594 2.41998 0.648438 3.59748 0.648438 5.04498V19.295C0.648438 20.7425 1.82594 21.92 3.27344 21.92H17.5234C18.9709 21.92 20.1484 20.7425 20.1484 19.295V7.32273L17.8984 10.9047V19.2972V19.295Z" fill="#F6F3F7"/>
</svg>
