<svg width="41" height="40" viewBox="0 0 41 40" fill="none" xmlns="http://www.w3.org/2000/svg">
<path d="M9.01558 38.1436C8.85933 38.1436 8.71089 38.1264 8.56245 38.0787C7.99292 37.9029 7.73823 37.6889 7.62651 37.5146C7.51558 37.3396 7.48198 37.1412 7.56323 36.7881C7.72417 36.0818 8.45308 34.9592 9.4062 33.8021C10.3593 32.6451 11.5078 31.4217 12.4687 30.2889C13.4218 29.1482 14.2265 28.1639 14.3906 27.0701L14.4062 26.9451L14.3828 26.8201C14.0078 25.0857 13.4765 23.4451 13.3984 21.9529C13.3203 20.4686 13.6171 19.1795 14.9453 17.8592C17.664 15.1404 20.6718 12.7967 23.6874 11.1639C26.1953 11.242 28.539 11.4764 30.2968 12.3748C29.8906 15.5623 30.3671 18.8045 27.2578 21.7342C24.4296 24.4061 20.625 25.9061 17.0703 28.1873L17.0546 28.2029L17.039 28.2186C16.25 28.7967 15.6015 29.7654 14.9062 30.8904C14.2031 32.0154 13.4843 33.3053 12.7343 34.4865C11.9921 35.667 11.2109 36.7357 10.4765 37.3928C9.92183 37.885 9.46089 38.1311 9.01558 38.1436ZM12.5156 18.9295L12.0546 17.1873C13.2109 14.867 15.3906 11.8436 17.4609 10.6951C16.039 10.867 12.7031 12.9373 11.3359 14.492L10.9843 13.1561C12.0156 11.5623 13.6484 10.2889 15.6718 9.36699C14.3828 9.26543 12.0859 9.93731 10.7265 10.9373C11.2578 10.0076 12.0625 9.31231 13.1171 8.71856C14.3984 7.99981 16.0312 7.48418 17.8046 7.02324L28.6015 4.61699L28.5156 6.20293L22.2812 10.3357C19.3749 12.0232 16.539 14.2811 13.9453 16.8592C13.289 17.5154 12.8281 18.2186 12.5156 18.9295ZM3.94292 18.7732C3.88354 18.7732 3.82729 18.7654 3.77261 18.7654C3.33667 18.7342 3.04292 18.5701 2.82729 18.3748C2.39761 17.992 2.27651 17.2576 2.34683 16.9764C2.33354 17.0232 2.58042 16.6717 3.15073 16.3436C3.72104 16.0232 4.53276 15.6717 5.43276 15.3357C6.83745 14.8201 8.39058 14.3514 9.73433 13.9451L10.1484 15.492C9.64058 15.7889 9.03901 16.1639 8.42964 16.5545C7.78354 16.9686 7.1312 17.3904 6.60073 17.7342C6.07026 18.0701 5.58823 18.3436 5.5687 18.3514C4.88433 18.6561 4.3562 18.7654 3.94292 18.7732ZM30.7812 11.0311C29.2187 10.2654 27.4296 9.96856 25.5703 9.84356L29.0546 7.53887L32.164 8.29668L30.7812 11.0311ZM31.7109 6.70293C31.5 6.69512 31.3203 6.66387 31.1718 6.61699C30.7812 6.49199 30.5625 6.25762 30.4375 5.96074C30.1718 5.36699 30.4062 4.60137 30.8906 4.40605C30.9062 4.39824 32.6874 3.73418 34.5156 3.06231C35.0078 2.88262 35.5 2.70293 35.9687 2.53105C35.9375 2.71074 35.9218 2.89043 35.9218 3.07793C35.9218 3.74199 36.1093 4.35918 36.4531 4.84356C36.4921 4.89043 36.5234 4.9373 36.5703 4.98418L33.0703 6.4373C32.6249 6.59355 32.2499 6.67168 31.9374 6.69512C31.8593 6.70293 31.7812 6.70293 31.7109 6.70293ZM38 4.29668C37.8828 4.29668 37.7499 4.23418 37.6015 4.02324C37.4453 3.81231 37.3281 3.46855 37.3281 3.07793C37.3281 2.6873 37.4453 2.34355 37.6015 2.13262C37.7499 1.92168 37.8828 1.85918 38 1.85918C38.1171 1.85918 38.25 1.92168 38.3984 2.13262C38.5546 2.34355 38.6718 2.6873 38.6718 3.07793C38.6718 3.46855 38.5546 3.81231 38.3984 4.02324C38.25 4.23418 38.1171 4.29668 38 4.29668Z" fill="#F6F3F7"/>
</svg>
