<svg width="20" height="20" viewBox="0 0 20 20" fill="none" xmlns="http://www.w3.org/2000/svg">
<g clip-path="url(#clip0_746_7170)">
<path d="M10.125 1.5C5.36203 1.5 1.5 5.36203 1.5 10.125C1.5 14.888 5.36203 18.75 10.125 18.75C14.888 18.75 18.75 14.888 18.75 10.125C18.75 5.36203 14.888 1.5 10.125 1.5Z" stroke="#A77C4A" stroke-width="1.5" stroke-miterlimit="10"/>
<path d="M8.8125 8.8125H10.3125V14.25" stroke="#A77C4A" stroke-width="1.5" stroke-linecap="round" stroke-linejoin="round"/>
<path d="M8.25 14.4375H12.375" stroke="#A77C4A" stroke-width="1.5" stroke-miterlimit="10" stroke-linecap="round"/>
<path d="M10.125 4.59375C9.88395 4.59375 9.64832 4.66523 9.4479 4.79915C9.24748 4.93306 9.09127 5.12341 8.99902 5.3461C8.90678 5.5688 8.88264 5.81385 8.92967 6.05027C8.97669 6.28668 9.09277 6.50384 9.26321 6.67429C9.43366 6.84473 9.65082 6.96081 9.88723 7.00783C10.1236 7.05486 10.3687 7.03072 10.5914 6.93848C10.8141 6.84623 11.0044 6.69002 11.1384 6.4896C11.2723 6.28918 11.3438 6.05355 11.3438 5.8125C11.3438 5.48927 11.2153 5.17927 10.9868 4.95071C10.7582 4.72215 10.4482 4.59375 10.125 4.59375Z" fill="#A77C4A"/>
</g>
<defs>
<clipPath id="clip0_746_7170">
<rect width="20" height="20" fill="white"/>
</clipPath>
</defs>
</svg>
