<svg width="26" height="25" viewBox="0 0 26 25" fill="none" xmlns="http://www.w3.org/2000/svg">
<path fill-rule="evenodd" clip-rule="evenodd" d="M13 18.75C16.4518 18.75 19.25 15.9518 19.25 12.5C19.25 9.04822 16.4518 6.25 13 6.25C9.54822 6.25 6.75 9.04822 6.75 12.5C6.75 15.9518 9.54822 18.75 13 18.75ZM13 16.6667C15.3011 16.6667 17.1667 14.8011 17.1667 12.5C17.1667 10.1988 15.3011 8.33333 13 8.33333C10.6988 8.33333 8.83333 10.1988 8.83333 12.5C8.83333 14.8011 10.6988 16.6667 13 16.6667Z" fill="#F6F3F7"/>
<path d="M19.2502 5.20801C18.6749 5.20801 18.2085 5.67438 18.2085 6.24967C18.2085 6.82497 18.6749 7.29134 19.2502 7.29134C19.8255 7.29134 20.2918 6.82497 20.2918 6.24967C20.2918 5.67438 19.8255 5.20801 19.2502 5.20801Z" fill="#F6F3F7"/>
<path fill-rule="evenodd" clip-rule="evenodd" d="M2.22271 4.45455C1.5415 5.7915 1.5415 7.54167 1.5415 11.042V13.9587C1.5415 17.459 1.5415 19.2092 2.22271 20.5461C2.82192 21.7221 3.77805 22.6782 4.95407 23.2774C6.29101 23.9587 8.04118 23.9587 11.5415 23.9587H14.4582C17.9585 23.9587 19.7087 23.9587 21.0456 23.2774C22.2216 22.6782 23.1778 21.7221 23.7769 20.5461C24.4582 19.2092 24.4582 17.459 24.4582 13.9587V11.042C24.4582 7.54167 24.4582 5.7915 23.7769 4.45455C23.1778 3.27853 22.2216 2.32241 21.0456 1.7232C19.7087 1.04199 17.9585 1.04199 14.4582 1.04199H11.5415C8.04118 1.04199 6.29101 1.04199 4.95407 1.7232C3.77805 2.32241 2.82192 3.27853 2.22271 4.45455ZM14.4582 3.12533H11.5415C9.75696 3.12533 8.54385 3.12695 7.60617 3.20355C6.6928 3.27818 6.22571 3.41344 5.89988 3.57946C5.11587 3.97894 4.47845 4.61636 4.07897 5.40037C3.91295 5.7262 3.77769 6.19328 3.70307 7.10666C3.62646 8.04434 3.62484 9.25745 3.62484 11.042V13.9587C3.62484 15.7432 3.62646 16.9563 3.70307 17.894C3.77769 18.8074 3.91295 19.2745 4.07897 19.6003C4.47845 20.3843 5.11587 21.0217 5.89988 21.4212C6.22571 21.5872 6.6928 21.7225 7.60617 21.7971C8.54385 21.8737 9.75696 21.8753 11.5415 21.8753H14.4582C16.2428 21.8753 17.4558 21.8737 18.3935 21.7971C19.3069 21.7225 19.774 21.5872 20.0998 21.4212C20.8838 21.0217 21.5212 20.3843 21.9207 19.6003C22.0867 19.2745 22.222 18.8074 22.2966 17.894C22.3732 16.9563 22.3748 15.7432 22.3748 13.9587V11.042C22.3748 9.25745 22.3732 8.04434 22.2966 7.10666C22.222 6.19328 22.0867 5.7262 21.9207 5.40037C21.5212 4.61636 20.8838 3.97894 20.0998 3.57946C19.774 3.41344 19.3069 3.27818 18.3935 3.20355C17.4558 3.12695 16.2428 3.12533 14.4582 3.12533Z" fill="#F6F3F7"/>
</svg>
