<svg width="155" height="75" viewBox="0 0 155 75" fill="none" xmlns="http://www.w3.org/2000/svg">
<path d="M2.35 46.5C6.5 46.5 15.55 37.45 22 26.55C21.8 26.7 21.55 26.85 21.3 27C15.1 31.25 1.95 42.1 1.95 46.15C1.95 46.45 2.05 46.5 2.35 46.5ZM42.65 45.25C46.75 45.25 49.95 40.7 49.95 36.15C50.35 37 50.5 37.8 50.5 38.6C50.5 44 47.8 47.35 43.35 47.35C40.8 47.35 39.6 44.15 39.6 41.65C39.6 36.5 41 30.55 43.1 24.85C39.6 27.45 36.15 29.6 33.4 30.9C32.8 30.9 30.65 29.45 30.65 28.8V28.75C31.3 26.05 31.55 22.65 31.55 19.3C31.55 16.9 31.45 14.45 31.25 12.25C28.9 28.75 12.25 47.25 2.25 47.25C1.45 47.25 0.65 46.65 0.65 45.9V45.85C0.65 40.75 13.95 29.85 21.05 26.6C21.55 26.35 22 26.2 22.3 26.05C26.35 19.1 29.3 11.45 29.3 4.95C29.3 4.15 28.25 3.75 28.25 3.75C22.35 3.75 8.1 9.85 8.1 15.25C8.1 15.65 8.2 15.85 8.65 15.85C9.65 15.85 13.5 15 14.55 15C17.75 15 18.5 16.2 18.5 17.45C18.5 18.1 18.3 18.75 18.1 19.25C18.1 16.85 17.25 16.55 15.75 16.55C14.55 16.55 11 17.1 9.35 17.1C7.2 17.1 5.6 16.1 5.6 14.6C5.6 7.55 21.45 2.4 27.5 2.4C28.7 2.4 29.6 2.8 30.25 3.6C32.75 4 34.55 11.45 34.55 19.7C34.55 22.65 34.35 25.65 33.85 28.5C37.05 26.45 41 23.6 44.9 20.45C49.35 10.55 55.55 2.4 59.6 2.4C60.4 2.4 61.2 3 61.2 3.75V3.8C61.2 7.9 55.3 14.65 48.45 20.55C45.05 28 42.25 36.45 42.25 43.1C42.25 43.95 42.3 45.25 42.65 45.25ZM51.15 15.05C56.15 10.45 59.9 6 59.9 3.5C59.9 3.2 59.8 3.15 59.5 3.15C58.35 3.15 54.75 8.15 51.15 15.05ZM62.8719 22.15C62.8719 21.5 63.5719 20.2 63.5719 19.6C63.5719 19.05 63.3219 18.8 62.9219 18.8C60.0219 18.8 56.5719 28.9 56.5719 31.35C56.5719 31.9 56.6719 32.65 57.0719 32.65C57.3719 32.65 58.6219 31.1 60.2719 28.85C61.4719 27.2 64.0219 23.45 64.0219 23.3L63.2719 22.75C63.0219 22.55 62.8719 22.4 62.8719 22.15ZM62.6219 30.9C61.3219 32.65 59.5719 34.75 58.1719 34.75C55.3719 34.75 53.6719 32.2 53.6719 29.35C53.6719 23.75 59.4719 16.5 62.3719 16.5C64.3219 16.5 65.3219 19.1 65.5219 21L66.3719 19.6C67.1219 18.25 67.7219 17.25 67.9219 17.25C68.1219 17.25 69.5719 18.05 69.5719 18.95C69.5719 18.95 65.4719 29.35 65.4719 31.7C65.4719 32.7 65.6219 33.3 66.0219 33.3C66.8219 33.3 73.7219 21.3 73.7219 21.3L74.4719 22.15C74.4719 22.15 68.0719 35.2 66.3219 35.2C64.3219 35.2 62.6219 32.8 62.6219 31.05V30.9ZM75.9758 16.5C76.5758 16.5 77.6758 17.4 77.6758 18.2C77.6758 19.35 72.6258 28.05 72.6258 33C72.6258 33.6 72.6258 33.65 72.7758 33.65C73.6758 33.65 81.2258 21.3 81.2258 21.3L81.9758 22.15C81.9758 22.15 74.9758 35.55 73.0758 35.55C72.1758 35.55 69.6758 34.35 69.6758 31.35C69.6758 27.65 75.1758 16.5 75.9758 16.5ZM79.3758 9.35C79.9758 9.35 80.8258 10.9 80.8258 11.2C80.8258 11.9 79.2758 14.95 78.9258 14.95C78.9258 14.95 77.0258 14.05 77.0258 13.45C77.0258 12.55 78.9758 9.35 79.3758 9.35ZM84.3441 18.9C88.3941 14.7 93.7441 7.5 93.7441 3.5C93.7441 3.25 93.5441 2.75 93.3441 2.75C91.7441 2.75 87.3941 11.15 84.3441 18.9ZM83.1441 22.1C81.8441 25.65 80.9941 28.8 80.9941 30.4C80.9941 32.35 81.2941 33.5 81.9941 33.5C84.1941 33.5 91.5441 21.3 91.5441 21.3L92.2941 22.15C92.2941 22.15 85.5941 35.4 82.2941 35.4C78.8941 35.4 77.9941 32.15 77.9941 28.75C77.9941 22.15 87.1441 0.599999 92.8441 0.599999C94.0441 0.599999 95.0441 1.8 95.0441 3.5C95.0441 8.3 89.2441 16.25 83.1441 22.1ZM94.6469 18.9C98.6969 14.7 104.047 7.5 104.047 3.5C104.047 3.25 103.847 2.75 103.647 2.75C102.047 2.75 97.6969 11.15 94.6469 18.9ZM93.4469 22.1C92.1469 25.65 91.2969 28.8 91.2969 30.4C91.2969 32.35 91.5969 33.5 92.2969 33.5C94.4969 33.5 101.847 21.3 101.847 21.3L102.597 22.15C102.597 22.15 95.8969 35.4 92.5969 35.4C89.1969 35.4 88.2969 32.15 88.2969 28.75C88.2969 22.15 97.4469 0.599999 103.147 0.599999C104.347 0.599999 105.347 1.8 105.347 3.5C105.347 8.3 99.5469 16.25 93.4469 22.1ZM107.55 22.15C107.55 21.5 108.25 20.2 108.25 19.6C108.25 19.05 108 18.8 107.6 18.8C104.7 18.8 101.25 28.9 101.25 31.35C101.25 31.9 101.35 32.65 101.75 32.65C102.05 32.65 103.3 31.1 104.95 28.85C106.15 27.2 108.7 23.45 108.7 23.3L107.95 22.75C107.7 22.55 107.55 22.4 107.55 22.15ZM107.3 30.9C106 32.65 104.25 34.75 102.85 34.75C100.05 34.75 98.3496 32.2 98.3496 29.35C98.3496 23.75 104.15 16.5 107.05 16.5C109 16.5 110 19.1 110.2 21L111.05 19.6C111.8 18.25 112.4 17.25 112.6 17.25C112.8 17.25 114.25 18.05 114.25 18.95C114.25 18.95 110.15 29.35 110.15 31.7C110.15 32.7 110.3 33.3 110.7 33.3C111.5 33.3 118.4 21.3 118.4 21.3L119.15 22.15C119.15 22.15 112.75 35.2 111 35.2C109 35.2 107.3 32.8 107.3 31.05V30.9ZM125.704 21.75C122.954 24.85 118.054 33 117.404 34.15C116.704 35.35 116.304 35.7 115.604 35.7C114.604 35.7 113.704 35.15 113.704 34.05C113.704 32.85 119.054 16.7 119.804 16.7C120.454 16.7 121.754 18 121.754 19.15C121.754 20.55 119.504 26.6 119.504 26.6L119.754 26.75C119.754 26.75 126.804 16.5 128.754 16.5C129.354 16.5 130.454 17.4 130.454 18.2C130.454 18.7 128.554 22.65 128.554 24.3C128.554 24.75 129.254 25.35 129.854 25.35C131.954 25.35 134.354 21.3 134.354 21.3L135.104 22.15C134.554 23.05 131.604 27.5 128.154 27.5C126.404 27.5 125.454 25.65 125.454 23.5C125.454 23.15 125.704 22.15 125.704 21.75ZM139.569 22.15C139.569 21.5 140.269 20.2 140.269 19.6C140.269 19.05 140.019 18.8 139.619 18.8C136.719 18.8 133.269 28.9 133.269 31.35C133.269 31.9 133.369 32.65 133.769 32.65C134.069 32.65 135.319 31.1 136.969 28.85C138.169 27.2 140.719 23.45 140.719 23.3L139.969 22.75C139.719 22.55 139.569 22.4 139.569 22.15ZM139.319 30.9C138.019 32.65 136.269 34.75 134.869 34.75C132.069 34.75 130.369 32.2 130.369 29.35C130.369 23.75 136.169 16.5 139.069 16.5C140.769 16.5 141.769 18.55 142.119 20.35C144.019 15.1 149.219 4.15 152.719 4.15C153.919 4.15 154.919 5.35 154.919 7.05C154.919 10.9 150.319 17.2 145.419 21.95C144.219 25.1 142.219 29.55 142.219 31.7C142.219 32.8 142.519 33.5 143.369 33.5C144.269 33.5 151.919 21.3 151.919 21.3L152.669 22.15C152.669 22.15 145.569 35.4 143.669 35.4C141.319 35.4 139.319 32.9 139.319 31.05V30.9ZM146.469 18.9C149.669 15.5 153.619 10.05 153.619 7.05C153.619 6.8 153.419 6.3 153.219 6.3C152.019 6.3 148.669 13.55 146.469 18.9Z" fill="#A77C4A"/>
<path d="M24.3087 62.104L22.8269 60.5687C22.7577 60.4966 22.6454 60.4966 22.5759 60.5687C22.5413 60.6045 22.524 60.6515 22.524 60.6984C22.524 60.7457 22.5415 60.7926 22.5759 60.8285L24.0576 62.3639C24.1271 62.4356 24.2392 62.4356 24.3087 62.3639C24.3779 62.2919 24.3779 62.1758 24.3087 62.1038V62.104Z" fill="#A77C4A"/>
<path d="M28.9485 68.062C29.2237 68.0304 29.4926 67.8915 29.706 67.6704C29.9194 67.4492 30.0537 67.1706 30.0839 66.8855C30.1161 66.5849 30.0312 66.3129 29.8444 66.1193C29.6472 65.915 29.366 65.8305 29.0597 65.8806L26.7993 63.5383C26.7993 63.5381 26.799 63.5381 26.799 63.5381L20.5652 57.0928C20.5124 57.0382 20.4322 57.0237 20.3647 57.0567C20.302 57.0872 20.2625 57.1523 20.2625 57.2229C20.2625 57.2286 20.2628 57.234 20.2633 57.2394C20.4446 59.3067 21.329 61.2579 22.7533 62.7338L25.1646 65.232C25.1975 65.2667 25.2428 65.2858 25.2898 65.2858C25.337 65.2858 25.3818 65.2667 25.415 65.232L25.8432 64.7883L27.9784 67.0004C27.9309 67.3183 28.0122 67.6092 28.2094 67.8132C28.3962 68.0068 28.6585 68.0953 28.9485 68.0617V68.062ZM25.2898 64.8424L23.0041 62.474C21.7591 61.1839 20.9445 59.5153 20.6783 57.7295L26.4225 63.6687L26.1528 63.9479L25.7177 64.399L25.2895 64.8426L25.2898 64.8424ZM26.6348 64.6912C26.6348 64.5896 26.7144 64.5074 26.8122 64.5074C26.91 64.5074 26.9896 64.5896 26.9896 64.6912C26.9896 64.7928 26.91 64.8751 26.8122 64.8751C26.7144 64.8751 26.6348 64.7928 26.6348 64.6912ZM28.2091 66.3985C28.1399 66.3268 28.1399 66.2104 28.2091 66.1387C28.2783 66.0667 28.3909 66.0667 28.4601 66.1387C28.5296 66.2104 28.5296 66.3268 28.4601 66.3985C28.3909 66.4705 28.2783 66.4705 28.2091 66.3985Z" fill="#A77C4A"/>
<path d="M28.6874 57.3299C28.806 57.4528 28.9099 57.3321 26.8074 59.5107C25.2393 61.1355 24.8734 61.5255 24.8733 61.5708C24.8733 61.6398 24.9316 61.6979 25.0002 61.6979C25.0376 61.6979 25.4868 61.2454 26.9842 59.6939C29.0805 57.5217 28.9702 57.623 29.0846 57.7437C29.1803 57.8407 29.147 58.1467 29.0015 58.5259C28.7415 59.2004 27.9491 60.3339 26.8698 61.5794C26.0837 62.4845 25.8425 62.6849 25.3787 62.8228C25.1707 62.8853 24.7444 62.8896 24.551 62.8336L24.4262 62.7969L24.1289 63.1051C23.9354 63.3033 23.7337 63.5404 23.5569 63.7774C22.0762 65.7664 20.8513 67.1477 19.9383 67.8588C19.6493 68.0851 19.6888 68.1002 19.1917 67.5851C18.6947 67.0701 18.7093 67.1111 18.9276 66.8115C19.616 65.8612 20.9657 64.5769 22.8769 63.0512C23.0973 62.8767 23.3261 62.6677 23.5154 62.4694L23.8127 62.1613L23.7774 62.0319C23.7233 61.8315 23.7275 61.3898 23.7878 61.1743C23.846 60.9653 23.9645 60.7153 24.0914 60.5408C24.2619 60.3059 24.9649 59.6293 25.6844 59.0065C26.9967 57.8708 27.8826 57.3213 28.4545 57.2847C28.6271 57.2761 28.6354 57.2761 28.6874 57.33L28.6874 57.3299ZM27.7703 57.8622C27.1527 58.1962 26.2605 58.8901 25.2352 59.834C24.4429 60.5623 24.2286 60.8231 24.108 61.1958C24.0353 61.4243 24.0311 61.8079 24.0997 62.0212C24.1247 62.0987 24.1455 62.185 24.1454 62.213C24.1454 62.2517 24.0643 62.3509 23.8293 62.5965L23.5132 62.9262L23.6006 63.0167L23.6879 63.1072L24.0061 62.7797C24.2432 62.5362 24.3389 62.4522 24.3763 62.4522C24.4033 62.4522 24.4865 62.4737 24.5614 62.4996C24.7673 62.5707 25.1375 62.5664 25.3579 62.4909C25.6303 62.3961 25.7905 62.2819 26.0899 61.9694C26.8303 61.1937 27.7994 59.9762 28.2715 59.2241C28.4503 58.944 28.6812 58.5065 28.7103 58.4009C28.7186 58.3686 28.0385 59.056 26.9696 60.1593C25.5471 61.6311 25.2019 61.9781 25.1353 61.9996C24.8671 62.088 24.5884 61.9048 24.5655 61.6225C24.5468 61.3941 24.4595 61.4975 26.3582 59.5258C27.423 58.4182 28.0864 57.7135 28.0552 57.7221C28.026 57.7308 27.8971 57.7932 27.7703 57.8622L27.7703 57.8622Z" fill="#A77C4A"/>
<path d="M47.95 54.08C47.95 53.22 47.03 52.5 45.79 52.5C44.67 52.5 40.47 55.06 40.47 58C40.47 60.16 46.83 60.82 46.83 63.62C46.83 66.64 40.31 69.96 37.39 69.96H37.35C36.11 69.96 35.29 69.78 35.29 69.44V69.42C35.29 68.26 39.01 65.74 40.99 65C41.45 64.82 41.67 64.68 41.75 64.68C41.77 64.68 41.77 64.7 41.77 64.7C41.77 64.72 41.41 64.94 41.09 65.16C39.47 66.26 35.81 68.62 35.81 69.54C35.81 69.6 35.99 69.62 36.31 69.62C37.93 69.62 45.39 65.76 45.39 62.98C45.39 61.46 39.43 60.14 39.43 57.46C39.43 53.66 43.99 51.96 45.49 51.96C47.29 51.96 48.89 53.5 48.89 55.12C48.89 56.1 48.01 58 47.41 58C46.83 58 46.45 57.56 46.31 57.42C46.69 57.16 47.95 54.86 47.95 54.08ZM55.4333 59.64C54.3133 60.84 52.4133 63.8 52.1533 64.26C51.8733 64.74 51.7133 64.88 51.4333 64.88C51.0333 64.88 50.6733 64.64 50.6733 64.2C50.6733 63.92 51.5133 61.38 52.1933 59.56C51.0733 60.76 49.1733 63.84 48.9333 64.26C48.6533 64.74 48.4933 64.88 48.2133 64.88C47.8133 64.88 47.4533 64.64 47.4533 64.2C47.4533 63.76 49.5333 57.84 49.8133 57.84C50.0733 57.84 50.5933 58.36 50.5933 58.82C50.5933 59.34 49.6733 61.64 49.6733 61.64L49.7733 61.7C49.7733 61.7 52.3133 57.72 53.0133 57.72C53.2733 57.72 53.7933 58.24 53.7933 58.7C53.7933 59.22 52.8933 61.64 52.8933 61.64L52.9933 61.7C52.9933 61.7 55.8333 57.54 56.6533 57.54C56.8933 57.54 57.3333 57.9 57.3333 58.22C57.3333 58.72 55.4133 63.16 55.4133 63.86C55.4133 64.04 55.4733 64.18 55.6733 64.18C56.0333 64.18 58.8333 59.52 58.8333 59.52L59.1333 59.86C59.1333 59.86 56.3333 65.22 55.5733 65.22C54.9933 65.22 54.1733 64.58 54.1733 63.8C54.1733 63.02 54.8333 60.98 55.4333 59.64ZM61.6998 58.56C60.3198 58.56 58.6998 62.16 58.6998 63.4C58.6998 64.08 59.0998 64.32 59.5798 64.32C60.3198 64.32 61.1998 62.94 61.7798 61.54C61.5198 61.14 61.3798 60.6 61.3798 60.04C61.3798 59.5 61.5398 58.98 61.8398 58.68C61.8398 58.56 61.7998 58.56 61.6998 58.56ZM62.7998 58.82C62.8398 58.96 62.8598 59.12 62.8598 59.26V59.36C62.8398 59.76 62.7398 60.28 62.6198 60.8C62.7198 61.1 62.8598 61.32 63.0198 61.32C63.8598 61.32 64.7198 59.52 64.7198 59.52L65.0198 59.86C65.0198 59.86 63.8198 62.12 62.7398 62.12C62.5598 62.12 62.3998 62.08 62.2598 62C61.6798 63.6 60.6998 65.1 59.3798 65.1C58.4198 65.1 57.5798 64.38 57.5798 63.02C57.5798 60.98 59.1198 57.6 61.3398 57.6C62.1198 57.6 62.7998 57.98 62.7998 58.8V58.82ZM66.0211 61.92C65.2811 62.98 64.5811 64.02 64.4411 64.26C64.1611 64.74 64.0011 64.88 63.7211 64.88C63.3211 64.88 62.9611 64.64 62.9611 64.2C62.9611 63.9 63.9211 61.02 64.6011 59.34C66.0211 55.34 67.5811 51.24 69.3611 51.24C69.8411 51.24 70.2411 51.72 70.2411 52.4C70.2411 54.16 68.3211 56.94 66.1211 59.2C65.8211 60.02 65.5211 60.86 65.2211 61.66L65.2811 61.7C65.2811 61.7 68.1211 57.6 68.9411 57.6C69.1811 57.6 69.6211 57.96 69.6211 58.28C69.6211 58.52 68.2411 59.94 67.1411 61.16C67.4611 62.36 67.7211 64.18 67.9611 64.18C68.3211 64.18 71.1211 59.52 71.1211 59.52L71.4211 59.86C71.4211 59.86 68.6211 65.22 67.8611 65.22C66.6611 65.22 66.4811 63.4 66.0211 61.92ZM66.6411 57.82C68.1211 56.12 69.7211 53.78 69.7211 52.4C69.7211 52.3 69.6411 52.1 69.5611 52.1C68.9011 52.1 67.8011 54.76 66.6411 57.82ZM71.8673 65.06C70.7073 65.06 69.7073 64.36 69.7073 62.96C69.7073 60.76 71.7473 57.6 73.4273 57.6C74.2273 57.6 74.5673 58.2 74.5673 58.92C74.5673 60.72 72.2073 62.3 71.0473 62.98C71.1073 63.74 71.7473 64.24 72.4473 64.24C74.3673 64.24 76.6873 59.52 76.6873 59.52L76.9873 59.86C76.9073 60.02 74.6273 65.06 71.8673 65.06ZM71.2473 61.7C72.2673 61.06 73.5273 60.02 73.5273 58.9C73.5273 58.82 73.5073 58.68 73.4073 58.68C72.8673 58.68 71.7073 60.24 71.2473 61.7ZM89.8138 69.1C91.4538 69.1 92.7338 67.28 92.7338 65.46C92.8938 65.8 92.9538 66.12 92.9538 66.44C92.9538 68.6 91.8738 69.94 90.0938 69.94C89.0738 69.94 88.5938 68.66 88.5938 67.66C88.5938 65.46 89.2138 62.86 90.1738 60.44C88.4538 61.24 86.0938 61.74 84.8538 61.76C83.3338 66.14 81.2138 70.72 79.6538 70.72C79.0538 70.72 78.5538 70.3 78.5538 69.74V69.68C78.7738 69.88 79.0538 69.92 79.1938 69.92C80.2138 69.92 81.9938 65.6 83.4338 61.34C82.8138 60.92 82.3938 60.24 82.3938 59.54L83.3338 60.58C83.3338 60.72 83.4138 60.86 83.5538 60.96C84.7538 57.34 85.7138 53.86 85.7138 53.18C85.7138 52.8 85.6138 52.64 85.4938 52.48C83.1338 52.5 77.5738 54.92 77.5738 57.06C77.5738 57.22 77.6138 57.3 77.7938 57.3C78.1938 57.3 79.7338 56.96 80.1538 56.96C81.4338 56.96 81.7338 57.44 81.7338 57.94C81.7338 58.2 81.6538 58.46 81.5738 58.66C81.5738 57.7 81.2338 57.58 80.6338 57.58C80.1538 57.58 78.7338 57.8 78.0738 57.8C77.2138 57.8 76.5738 57.4 76.5738 56.8C76.5738 53.98 82.7738 51.92 85.1338 51.92C86.2738 51.92 86.8138 52.76 86.8138 54.32C86.8138 55.26 86.0938 58.1 85.0538 61.18C86.7938 60.98 89.7138 60.02 90.8138 58.96C92.5738 55.1 94.9938 51.96 96.5938 51.96C96.9138 51.96 97.2337 52.2 97.2337 52.5V52.52C97.2337 54.38 94.1138 58.02 91.8338 59.86C90.6138 62.66 89.6538 65.76 89.6538 68.24C89.6538 68.58 89.6738 69.1 89.8138 69.1ZM92.7738 57.88C94.7138 55.96 96.7138 53.52 96.7138 52.4C96.7138 52.28 96.6737 52.26 96.5538 52.26C96.0538 52.26 94.3538 54.68 92.7738 57.88ZM98.5748 58.56C97.1948 58.56 95.5748 62.16 95.5748 63.4C95.5748 64.08 95.9748 64.32 96.4548 64.32C97.1948 64.32 98.0748 62.94 98.6548 61.54C98.3948 61.14 98.2548 60.6 98.2548 60.04C98.2548 59.5 98.4148 58.98 98.7148 58.68C98.7148 58.56 98.6748 58.56 98.5748 58.56ZM99.6748 58.82C99.7148 58.96 99.7348 59.12 99.7348 59.26V59.36C99.7148 59.76 99.6148 60.28 99.4948 60.8C99.5948 61.1 99.7348 61.32 99.8948 61.32C100.735 61.32 101.595 59.52 101.595 59.52L101.895 59.86C101.895 59.86 100.695 62.12 99.6148 62.12C99.4348 62.12 99.2748 62.08 99.1348 62C98.5548 63.6 97.5748 65.1 96.2548 65.1C95.2948 65.1 94.4548 64.38 94.4548 63.02C94.4548 60.98 95.9948 57.6 98.2148 57.6C98.9948 57.6 99.6748 57.98 99.6748 58.8V58.82ZM105.896 58.02C106.136 58.02 106.576 58.38 106.576 58.7C106.576 59.14 104.716 62.3 104.716 64.2C104.716 64.44 104.716 64.46 104.776 64.46C105.136 64.46 108.156 59.52 108.156 59.52L108.456 59.86C108.456 59.86 105.656 65.22 104.896 65.22C104.536 65.22 103.536 64.74 103.536 63.54V63.46C102.836 64.34 101.896 65 101.396 65C100.736 65 100.056 64.28 100.056 63.54C100.056 62.4 102.216 57.6 102.336 57.6C102.596 57.6 103.116 58.12 103.116 58.58C103.116 59.56 101.076 63.18 101.076 64.12C101.076 64.2 101.176 64.26 101.256 64.26C101.816 64.26 103.176 62.62 104.636 60.18C105.176 59 105.756 58.02 105.896 58.02ZM106.421 64.16C106.421 63.98 106.601 63.84 106.741 63.84C106.861 63.84 107.001 63.92 107.161 64.06C107.301 64.2 107.401 64.24 107.481 64.24C107.901 64.24 108.381 63.46 108.381 62.64C108.381 61.68 107.561 60.68 107.561 59.68C107.561 58.54 108.421 57.6 109.901 57.6C110.521 57.6 111.101 58.58 111.101 59.42C111.101 60.14 110.901 60.8 110.541 60.8C110.381 60.8 109.841 60.56 109.841 60.36C109.841 60.02 110.121 59.4 110.121 59.04C110.121 58.88 110.041 58.68 109.881 58.68C109.101 58.68 108.821 59.22 108.821 59.86C108.821 61.02 109.721 62.76 109.721 63.5V63.62C111.281 62.2 112.681 59.52 112.681 59.52L112.981 59.86C112.981 59.86 111.221 63.84 109.161 64.94C108.921 65.12 108.581 65.22 108.161 65.22C107.601 65.22 107.181 65.04 106.701 64.58C106.501 64.4 106.421 64.26 106.421 64.16ZM113.547 65.06C112.387 65.06 111.387 64.36 111.387 62.96C111.387 60.76 113.427 57.6 115.107 57.6C115.907 57.6 116.247 58.2 116.247 58.92C116.247 60.72 113.887 62.3 112.727 62.98C112.787 63.74 113.427 64.24 114.127 64.24C116.047 64.24 118.367 59.52 118.367 59.52L118.667 59.86C118.587 60.02 116.307 65.06 113.547 65.06ZM112.927 61.7C113.947 61.06 115.207 60.02 115.207 58.9C115.207 58.82 115.187 58.68 115.087 58.68C114.547 58.68 113.387 60.24 112.927 61.7Z" fill="#A77C4A"/>
<path d="M126.309 62.104L124.827 60.5687C124.758 60.4966 124.645 60.4966 124.576 60.5687C124.541 60.6045 124.524 60.6515 124.524 60.6984C124.524 60.7457 124.542 60.7926 124.576 60.8285L126.058 62.3639C126.127 62.4356 126.239 62.4356 126.309 62.3639C126.378 62.2919 126.378 62.1758 126.309 62.1038V62.104Z" fill="#A77C4A"/>
<path d="M130.948 68.062C131.224 68.0304 131.493 67.8915 131.706 67.6704C131.919 67.4492 132.054 67.1706 132.084 66.8855C132.116 66.5849 132.031 66.3129 131.844 66.1193C131.647 65.915 131.366 65.8305 131.06 65.8806L128.799 63.5383C128.799 63.5381 128.799 63.5381 128.799 63.5381L122.565 57.0928C122.512 57.0382 122.432 57.0237 122.365 57.0567C122.302 57.0872 122.262 57.1523 122.262 57.2229C122.262 57.2286 122.263 57.234 122.263 57.2394C122.445 59.3067 123.329 61.2579 124.753 62.7338L127.165 65.232C127.198 65.2667 127.243 65.2858 127.29 65.2858C127.337 65.2858 127.382 65.2667 127.415 65.232L127.843 64.7883L129.978 67.0004C129.931 67.3183 130.012 67.6092 130.209 67.8132C130.396 68.0068 130.658 68.0953 130.948 68.0617V68.062ZM127.29 64.8424L125.004 62.474C123.759 61.1839 122.944 59.5153 122.678 57.7295L128.422 63.6687L128.153 63.9479L127.718 64.399L127.29 64.8426L127.29 64.8424ZM128.635 64.6912C128.635 64.5896 128.714 64.5074 128.812 64.5074C128.91 64.5074 128.99 64.5896 128.99 64.6912C128.99 64.7928 128.91 64.8751 128.812 64.8751C128.714 64.8751 128.635 64.7928 128.635 64.6912ZM130.209 66.3985C130.14 66.3268 130.14 66.2104 130.209 66.1387C130.278 66.0667 130.391 66.0667 130.46 66.1387C130.53 66.2104 130.53 66.3268 130.46 66.3985C130.391 66.4705 130.278 66.4705 130.209 66.3985Z" fill="#A77C4A"/>
<path d="M130.687 57.3299C130.806 57.4528 130.91 57.3321 128.807 59.5107C127.239 61.1355 126.873 61.5255 126.873 61.5708C126.873 61.6398 126.932 61.6979 127 61.6979C127.038 61.6979 127.487 61.2454 128.984 59.6939C131.08 57.5217 130.97 57.623 131.085 57.7437C131.18 57.8407 131.147 58.1467 131.001 58.5259C130.742 59.2004 129.949 60.3339 128.87 61.5794C128.084 62.4845 127.842 62.6849 127.379 62.8228C127.171 62.8853 126.744 62.8896 126.551 62.8336L126.426 62.7969L126.129 63.1051C125.935 63.3033 125.734 63.5404 125.557 63.7774C124.076 65.7664 122.851 67.1477 121.938 67.8588C121.649 68.0851 121.689 68.1002 121.192 67.5851C120.695 67.0701 120.709 67.1111 120.928 66.8115C121.616 65.8612 122.966 64.5769 124.877 63.0512C125.097 62.8767 125.326 62.6677 125.515 62.4694L125.813 62.1613L125.777 62.0319C125.723 61.8315 125.727 61.3898 125.788 61.1743C125.846 60.9653 125.965 60.7153 126.091 60.5408C126.262 60.3059 126.965 59.6293 127.684 59.0065C128.997 57.8708 129.883 57.3213 130.455 57.2847C130.627 57.2761 130.635 57.2761 130.687 57.33L130.687 57.3299ZM129.77 57.8622C129.153 58.1962 128.26 58.8901 127.235 59.834C126.443 60.5623 126.229 60.8231 126.108 61.1958C126.035 61.4243 126.031 61.8079 126.1 62.0212C126.125 62.0987 126.145 62.185 126.145 62.213C126.145 62.2517 126.064 62.3509 125.829 62.5965L125.513 62.9262L125.601 63.0167L125.688 63.1072L126.006 62.7797C126.243 62.5362 126.339 62.4522 126.376 62.4522C126.403 62.4522 126.487 62.4737 126.561 62.4996C126.767 62.5707 127.137 62.5664 127.358 62.4909C127.63 62.3961 127.79 62.2819 128.09 61.9694C128.83 61.1937 129.799 59.9762 130.271 59.2241C130.45 58.944 130.681 58.5065 130.71 58.4009C130.719 58.3686 130.039 59.056 128.97 60.1593C127.547 61.6311 127.202 61.9781 127.135 61.9996C126.867 62.088 126.588 61.9048 126.566 61.6225C126.547 61.3941 126.46 61.4975 128.358 59.5258C129.423 58.4182 130.086 57.7135 130.055 57.7221C130.026 57.7308 129.897 57.7932 129.77 57.8622L129.77 57.8622Z" fill="#A77C4A"/>
</svg>
