<svg width="89" height="89" viewBox="0 0 89 89" fill="none" xmlns="http://www.w3.org/2000/svg">
<rect x="21.5" y="21.5" width="46" height="46" rx="23" fill="#A77C4A"/>
<rect x="21.5" y="21.5" width="46" height="46" rx="23" stroke="white"/>
<circle cx="44.5" cy="44.5" r="23" fill="#A77C4A" stroke="white"/>
<rect x="36.5" y="0.5" width="16" height="16" rx="3.5" fill="#A77C4A" stroke="white"/>
<rect x="36.5" y="72.5" width="16" height="16" rx="3.5" fill="#A77C4A" stroke="white"/>
<rect x="69.9561" y="7.73042" width="16" height="16" rx="3.5" transform="rotate(45 69.9561 7.73042)" fill="#A77C4A" stroke="white"/>
<rect x="19.0444" y="58.6422" width="16" height="16" rx="3.5" transform="rotate(45 19.0444 58.6422)" fill="#A77C4A" stroke="white"/>
<rect x="88.5" y="36.5" width="16" height="16" rx="3.5" transform="rotate(90 88.5 36.5)" fill="#A77C4A" stroke="white"/>
<rect x="16.5" y="36.5" width="16" height="16" rx="3.5" transform="rotate(90 16.5 36.5)" fill="#A77C4A" stroke="white"/>
<rect x="81.2695" y="69.9558" width="16" height="16" rx="3.5" transform="rotate(135 81.2695 69.9558)" fill="#A77C4A" stroke="white"/>
<rect x="30.3578" y="19.0441" width="16" height="16" rx="3.5" transform="rotate(135 30.3578 19.0441)" fill="#A77C4A" stroke="white"/>
</svg>
