<svg width="372" height="122" viewBox="0 0 372 122" fill="none" xmlns="http://www.w3.org/2000/svg">
<path d="M134.377 33.48L122.407 17.4C122.227 17.16 122.047 16.93 121.867 16.71C121.707 16.47 121.537 16.23 121.357 15.99H121.327L121.417 28.83C121.417 29.33 121.417 29.83 121.417 30.33C121.417 30.83 121.397 31.32 121.357 31.8C121.717 31.78 122.077 31.76 122.437 31.74C122.797 31.72 123.157 31.7 123.517 31.68V33H118.027V32.01C118.647 32.01 119.087 31.88 119.347 31.62C119.627 31.34 119.807 31.02 119.887 30.66C119.967 30.28 120.007 29.94 120.007 29.64L120.037 15.21C120.037 14.87 120.037 14.53 120.037 14.19C120.037 13.85 120.037 13.52 120.037 13.2C119.717 13.22 119.387 13.24 119.047 13.26C118.707 13.28 118.367 13.3 118.027 13.32V12H121.597L132.847 27.06C133.107 27.4 133.357 27.74 133.597 28.08C133.857 28.42 134.117 28.76 134.377 29.1H134.407L134.437 15.36C134.437 14.96 134.447 14.58 134.467 14.22C134.487 13.84 134.507 13.5 134.527 13.2C134.167 13.22 133.807 13.24 133.447 13.26C133.087 13.28 132.727 13.3 132.367 13.32V12H137.887V12.99C137.147 13.01 136.637 13.18 136.357 13.5C136.077 13.82 135.927 14.25 135.907 14.79C135.887 15.33 135.877 15.96 135.877 16.68L135.817 33.48H134.377ZM146.819 12.99C146.159 12.99 145.679 13.13 145.379 13.41C145.099 13.69 144.929 14.02 144.869 14.4C144.809 14.76 144.779 15.08 144.779 15.36V22.92C144.779 24.04 144.849 25.13 144.989 26.19C145.149 27.23 145.439 28.17 145.859 29.01C146.279 29.85 146.899 30.52 147.719 31.02C148.559 31.52 149.649 31.77 150.989 31.77C152.429 31.77 153.599 31.43 154.499 30.75C155.419 30.07 156.089 29.13 156.509 27.93C156.949 26.73 157.179 25.35 157.199 23.79L157.289 15.36C157.289 14.96 157.299 14.58 157.319 14.22C157.339 13.84 157.359 13.5 157.379 13.2C157.019 13.22 156.659 13.24 156.299 13.26C155.959 13.28 155.609 13.3 155.249 13.32V12H160.829V12.99C160.069 13.01 159.539 13.18 159.239 13.5C158.959 13.82 158.799 14.25 158.759 14.79C158.739 15.33 158.729 15.96 158.729 16.68L158.669 23.64C158.669 24.94 158.529 26.18 158.249 27.36C157.969 28.54 157.509 29.59 156.869 30.51C156.249 31.43 155.419 32.16 154.379 32.7C153.359 33.22 152.099 33.48 150.599 33.48C148.999 33.48 147.649 33.27 146.549 32.85C145.469 32.43 144.599 31.78 143.939 30.9C143.299 30.02 142.839 28.91 142.559 27.57C142.279 26.23 142.139 24.63 142.139 22.77V16.68C142.139 16.16 142.149 15.55 142.169 14.85C142.209 14.13 142.239 13.58 142.259 13.2C141.899 13.22 141.539 13.24 141.179 13.26C140.819 13.26 140.459 13.27 140.099 13.29V12H146.819V12.99ZM173.818 25.23C173.818 24.35 173.698 23.72 173.458 23.34C173.218 22.96 172.838 22.73 172.318 22.65C171.798 22.57 171.108 22.55 170.248 22.59L168.058 22.68V29.55C168.058 30.09 168.048 30.55 168.028 30.93C168.028 31.31 168.008 31.63 167.968 31.89L173.698 31.8C174.578 31.78 175.338 31.64 175.978 31.38C176.618 31.1 177.118 30.62 177.478 29.94C177.838 29.26 178.018 28.33 178.018 27.15H179.038L178.858 33H163.378V32.01C164.138 31.97 164.658 31.8 164.938 31.5C165.218 31.18 165.368 30.75 165.388 30.21C165.428 29.65 165.448 29.02 165.448 28.32V15.36C165.448 14.96 165.458 14.58 165.478 14.22C165.498 13.84 165.518 13.5 165.538 13.2C165.178 13.22 164.818 13.24 164.458 13.26C164.098 13.28 163.738 13.3 163.378 13.32V12H177.808L177.958 17.25H176.968C176.968 16.07 176.788 15.18 176.428 14.58C176.068 13.96 175.578 13.55 174.958 13.35C174.358 13.13 173.678 13.03 172.918 13.05L170.338 13.11C169.598 13.13 169.068 13.27 168.748 13.53C168.428 13.79 168.228 14.18 168.148 14.7C168.088 15.2 168.058 15.86 168.058 16.68V21.48L173.698 21.51L173.488 18.93H174.808V25.23H173.818ZM193.83 18.36C193.77 17.4 193.54 16.49 193.14 15.63C192.74 14.77 192.16 14.07 191.4 13.53C190.64 12.99 189.67 12.72 188.49 12.72C187.25 12.72 186.3 13.07 185.64 13.77C184.98 14.47 184.65 15.29 184.65 16.23C184.65 17.07 184.89 17.78 185.37 18.36C185.85 18.92 186.47 19.42 187.23 19.86C188.01 20.28 188.83 20.69 189.69 21.09C190.45 21.43 191.21 21.8 191.97 22.2C192.73 22.58 193.42 23.02 194.04 23.52C194.66 24.02 195.15 24.62 195.51 25.32C195.89 26 196.08 26.82 196.08 27.78C196.08 28.88 195.8 29.86 195.24 30.72C194.7 31.58 193.91 32.26 192.87 32.76C191.83 33.24 190.56 33.48 189.06 33.48C188.16 33.48 187.23 33.35 186.27 33.09C185.31 32.83 184.46 32.45 183.72 31.95L183.87 33.24H182.31L182.13 26.85H183.3C183.4 28.61 184.01 29.95 185.13 30.87C186.25 31.77 187.6 32.22 189.18 32.22C189.96 32.22 190.68 32.08 191.34 31.8C192 31.5 192.52 31.07 192.9 30.51C193.3 29.95 193.5 29.27 193.5 28.47C193.5 27.57 193.26 26.82 192.78 26.22C192.3 25.62 191.68 25.1 190.92 24.66C190.16 24.22 189.35 23.8 188.49 23.4C187.73 23.06 186.98 22.7 186.24 22.32C185.5 21.94 184.82 21.51 184.2 21.03C183.6 20.53 183.11 19.94 182.73 19.26C182.37 18.58 182.19 17.76 182.19 16.8C182.19 16.28 182.28 15.72 182.46 15.12C182.64 14.52 182.95 13.95 183.39 13.41C183.85 12.85 184.47 12.4 185.25 12.06C186.05 11.7 187.06 11.52 188.28 11.52C189.04 11.52 189.89 11.63 190.83 11.85C191.79 12.05 192.68 12.45 193.5 13.05L193.38 11.76H194.91V18.36H193.83ZM214.781 18.33C214.761 17.15 214.641 16.17 214.421 15.39C214.201 14.61 213.811 14.03 213.251 13.65C212.711 13.25 211.921 13.06 210.881 13.08H208.331L208.301 29.43C208.301 29.97 208.291 30.44 208.271 30.84C208.271 31.22 208.251 31.54 208.211 31.8C208.631 31.78 209.041 31.76 209.441 31.74C209.861 31.72 210.281 31.7 210.701 31.68V33H203.651V32.01C204.411 31.97 204.921 31.79 205.181 31.47C205.461 31.15 205.611 30.72 205.631 30.18C205.671 29.62 205.691 29 205.691 28.32L205.721 13.11L202.631 13.14C201.371 13.14 200.481 13.56 199.961 14.4C199.441 15.24 199.181 16.55 199.181 18.33H198.071L198.251 12H215.741L215.921 18.33H214.781ZM218.251 33V32.01C219.011 31.97 219.531 31.8 219.811 31.5C220.091 31.18 220.241 30.75 220.261 30.21C220.301 29.65 220.321 29.02 220.321 28.32V15.36C220.321 14.96 220.331 14.58 220.351 14.22C220.371 13.84 220.391 13.5 220.411 13.2C220.051 13.22 219.691 13.24 219.331 13.26C218.971 13.28 218.611 13.3 218.251 13.32V12C219.371 11.98 220.501 11.96 221.641 11.94C222.801 11.92 223.961 11.93 225.121 11.97C227.061 11.99 228.621 12.22 229.801 12.66C231.001 13.08 231.881 13.69 232.441 14.49C233.001 15.27 233.281 16.22 233.281 17.34C233.301 18.12 233.151 18.92 232.831 19.74C232.531 20.54 231.971 21.26 231.151 21.9C230.351 22.54 229.191 23.02 227.671 23.34C228.071 23.62 228.421 23.98 228.721 24.42C229.021 24.86 229.361 25.37 229.741 25.95L231.781 29.16C232.121 29.7 232.451 30.19 232.771 30.63C233.091 31.05 233.461 31.39 233.881 31.65C234.301 31.89 234.821 32.01 235.441 32.01V33H231.661C231.081 32.48 230.591 31.96 230.191 31.44C229.811 30.92 229.411 30.33 228.991 29.67L226.981 26.46C226.721 26.04 226.421 25.56 226.081 25.02C225.761 24.46 225.391 23.99 224.971 23.61C224.651 23.63 224.311 23.64 223.951 23.64C223.611 23.64 223.271 23.63 222.931 23.61V29.43C222.931 29.97 222.921 30.44 222.901 30.84C222.901 31.22 222.881 31.54 222.841 31.8C223.081 31.78 223.321 31.77 223.561 31.77C223.801 31.75 224.041 31.73 224.281 31.71C224.521 31.69 224.761 31.68 225.001 31.68V33H218.251ZM224.791 22.5C225.891 22.46 226.851 22.28 227.671 21.96C228.511 21.64 229.171 21.13 229.651 20.43C230.131 19.73 230.371 18.81 230.371 17.67C230.371 16.91 230.261 16.25 230.041 15.69C229.841 15.11 229.521 14.63 229.081 14.25C228.641 13.87 228.081 13.59 227.401 13.41C226.721 13.21 225.921 13.11 225.001 13.11C224.261 13.11 223.741 13.26 223.441 13.56C223.161 13.86 223.001 14.28 222.961 14.82C222.941 15.34 222.931 15.96 222.931 16.68V22.44C223.251 22.46 223.551 22.48 223.831 22.5C224.131 22.52 224.451 22.52 224.791 22.5ZM236.723 33V32.01C237.323 32.01 237.783 31.85 238.103 31.53C238.423 31.21 238.683 30.77 238.883 30.21C239.103 29.65 239.353 29 239.633 28.26L245.813 11.43H246.533L253.223 28.5C253.383 28.92 253.563 29.46 253.763 30.12C253.963 30.78 254.043 31.34 254.003 31.8C254.343 31.78 254.683 31.76 255.023 31.74C255.363 31.72 255.703 31.7 256.043 31.68V33H249.173V32.01C249.933 31.99 250.433 31.82 250.673 31.5C250.913 31.18 251.003 30.8 250.943 30.36C250.883 29.92 250.783 29.52 250.643 29.16L249.593 26.34L241.793 26.52L240.743 29.73C240.603 30.21 240.473 30.59 240.353 30.87C240.253 31.15 240.133 31.46 239.993 31.8C240.393 31.78 240.783 31.76 241.163 31.74C241.563 31.72 241.953 31.7 242.333 31.68V33H236.723ZM242.243 25.23H249.173L247.043 19.5C246.823 18.88 246.593 18.27 246.353 17.67C246.133 17.05 245.913 16.43 245.693 15.81H245.633C245.433 16.37 245.223 16.93 245.003 17.49C244.803 18.05 244.593 18.62 244.373 19.2L242.243 25.23Z" fill="#F6F3F7"/>
<path d="M66.0879 75.7C66.8546 75.6667 67.4879 75.5667 67.9879 75.4C68.5212 75.2333 68.9212 74.85 69.1879 74.25C69.4879 73.65 69.6379 72.6833 69.6379 71.35V52.2C69.6379 51.3 69.6546 50.4333 69.6879 49.6C69.7546 48.7667 69.8046 48.1333 69.8379 47.7C69.3046 47.7333 68.6379 47.7667 67.8379 47.8C67.0379 47.8 66.4546 47.8167 66.0879 47.85V44C68.4546 43.9667 70.8212 43.95 73.1879 43.95C75.5546 43.95 77.9212 43.9333 80.2879 43.9C83.2212 43.8667 85.7712 44.25 87.9379 45.05C90.1379 45.85 91.8212 47.0833 92.9879 48.75C94.1879 50.4167 94.7546 52.5833 94.6879 55.25C94.6546 56.5833 94.3379 57.9 93.7379 59.2C93.1379 60.4667 92.2546 61.6333 91.0879 62.7C89.9212 63.7333 88.4546 64.5833 86.6879 65.25C84.9212 65.9167 82.8546 66.2833 80.4879 66.35C79.7546 66.3833 79.1046 66.4 78.5379 66.4C78.0046 66.4 77.4546 66.3833 76.8879 66.35V70.75C76.8879 71.6833 76.8712 72.5667 76.8379 73.4C76.8046 74.2333 76.7546 74.8667 76.6879 75.3C77.0546 75.2667 77.5212 75.25 78.0879 75.25C78.6546 75.2167 79.2046 75.2 79.7379 75.2C80.3046 75.1667 80.7046 75.15 80.9379 75.15V79H66.0879V75.7ZM76.8879 62.6C77.2546 62.6333 77.6212 62.6667 77.9879 62.7C78.3546 62.7333 78.7379 62.75 79.1379 62.75C80.9712 62.75 82.4546 62.45 83.5879 61.85C84.7546 61.2167 85.6046 60.3167 86.1379 59.15C86.6712 57.95 86.9379 56.5 86.9379 54.8C86.9379 53.1333 86.7046 51.8 86.2379 50.8C85.8046 49.8 85.2379 49.0667 84.5379 48.6C83.8379 48.1 83.1046 47.7833 82.3379 47.65C81.5712 47.4833 80.8712 47.4 80.2379 47.4C79.5379 47.4 78.9379 47.4833 78.4379 47.65C77.9379 47.8167 77.5546 48.1833 77.2879 48.75C77.0212 49.3167 76.8879 50.1833 76.8879 51.35V62.6ZM92.9383 79V75.55C93.8716 75.55 94.6216 75.2833 95.1883 74.75C95.7549 74.2167 96.2216 73.5167 96.5883 72.65C96.9883 71.7833 97.3716 70.85 97.7383 69.85L107.488 43.1H110.988L121.638 70.35C121.838 70.85 122.105 71.6167 122.438 72.65C122.772 73.65 122.972 74.5333 123.038 75.3C123.605 75.2333 124.138 75.2 124.638 75.2C125.172 75.1667 125.605 75.15 125.938 75.15V79H112.488V75.7C113.422 75.7 114.055 75.5167 114.388 75.15C114.755 74.75 114.922 74.2167 114.888 73.55C114.855 72.8833 114.672 72.1333 114.338 71.3L113.338 68.55L102.488 68.75L101.688 71.1C101.522 71.5333 101.272 72.1833 100.938 73.05C100.638 73.8833 100.355 74.5833 100.088 75.15C100.622 75.0833 101.255 75.05 101.988 75.05C102.755 75.0167 103.305 75 103.638 75V79H92.9383ZM103.738 65H112.088L109.788 58.75C109.355 57.55 108.972 56.35 108.638 55.15C108.305 53.9167 108.055 52.8333 107.888 51.9H107.838C107.705 52.4667 107.505 53.3167 107.238 54.45C106.972 55.5833 106.555 56.9333 105.988 58.5L103.738 65ZM128.637 79V75.7C129.403 75.6667 130.037 75.5667 130.537 75.4C131.07 75.2333 131.47 74.85 131.737 74.25C132.037 73.65 132.187 72.6833 132.187 71.35V52.2C132.187 51.3 132.203 50.4333 132.237 49.6C132.303 48.7667 132.353 48.1333 132.387 47.7C131.853 47.7333 131.187 47.7667 130.387 47.8C129.587 47.8 129.003 47.8167 128.637 47.85V44C131.003 43.9667 133.37 43.95 135.737 43.95C138.103 43.95 140.47 43.9333 142.837 43.9C145.77 43.8667 148.32 44.2 150.487 44.9C152.653 45.6 154.32 46.7333 155.487 48.3C156.653 49.8667 157.203 51.9833 157.137 54.65C157.103 56.05 156.753 57.3833 156.087 58.65C155.453 59.9167 154.487 61.0333 153.187 62C151.92 62.9667 150.303 63.7333 148.337 64.3C148.97 64.5667 149.587 65 150.187 65.6C150.82 66.2 151.353 66.8333 151.787 67.5L154.137 71C154.87 72.1333 155.52 73.0333 156.087 73.7C156.653 74.3667 157.22 74.8667 157.787 75.2C158.353 75.5 159.003 75.6667 159.737 75.7V79H151.487C150.887 78.5667 150.287 77.95 149.687 77.15C149.12 76.3167 148.503 75.3667 147.837 74.3L144.137 68.3C143.703 67.6333 143.32 67.0667 142.987 66.6C142.687 66.1333 142.37 65.7333 142.037 65.4C141.503 65.4 141.053 65.4 140.687 65.4C140.32 65.4 139.903 65.4 139.437 65.4V70.75C139.437 71.6833 139.42 72.5667 139.387 73.4C139.353 74.2333 139.303 74.8667 139.237 75.3C139.603 75.2667 140.07 75.25 140.637 75.25C141.203 75.2167 141.753 75.2 142.287 75.2C142.853 75.1667 143.253 75.15 143.487 75.15V79H128.637ZM141.837 61.8C143.703 61.8 145.203 61.5333 146.337 61C147.47 60.4333 148.287 59.6 148.787 58.5C149.32 57.3667 149.587 55.95 149.587 54.25C149.587 52.65 149.337 51.4 148.837 50.5C148.337 49.5667 147.703 48.8833 146.937 48.45C146.203 47.9833 145.453 47.7 144.687 47.6C143.92 47.4667 143.287 47.4 142.787 47.4C142.087 47.4 141.487 47.4833 140.987 47.65C140.487 47.8167 140.103 48.1833 139.837 48.75C139.57 49.3167 139.437 50.1833 139.437 51.35V61.6C139.803 61.6333 140.187 61.6833 140.587 61.75C140.987 61.7833 141.403 61.8 141.837 61.8ZM162.914 79V75.7C163.681 75.6667 164.314 75.5667 164.814 75.4C165.347 75.2333 165.747 74.85 166.014 74.25C166.314 73.65 166.464 72.6833 166.464 71.35V52.2C166.464 51.3 166.481 50.4333 166.514 49.6C166.581 48.7667 166.631 48.1333 166.664 47.7C166.131 47.7333 165.464 47.7667 164.664 47.8C163.864 47.8 163.281 47.8167 162.914 47.85V44C165.281 43.9667 167.647 43.95 170.014 43.95C172.381 43.95 174.747 43.9333 177.114 43.9C180.047 43.8667 182.597 44.2 184.764 44.9C186.931 45.6 188.597 46.7333 189.764 48.3C190.931 49.8667 191.481 51.9833 191.414 54.65C191.381 56.05 191.031 57.3833 190.364 58.65C189.731 59.9167 188.764 61.0333 187.464 62C186.197 62.9667 184.581 63.7333 182.614 64.3C183.247 64.5667 183.864 65 184.464 65.6C185.097 66.2 185.631 66.8333 186.064 67.5L188.414 71C189.147 72.1333 189.797 73.0333 190.364 73.7C190.931 74.3667 191.497 74.8667 192.064 75.2C192.631 75.5 193.281 75.6667 194.014 75.7V79H185.764C185.164 78.5667 184.564 77.95 183.964 77.15C183.397 76.3167 182.781 75.3667 182.114 74.3L178.414 68.3C177.981 67.6333 177.597 67.0667 177.264 66.6C176.964 66.1333 176.647 65.7333 176.314 65.4C175.781 65.4 175.331 65.4 174.964 65.4C174.597 65.4 174.181 65.4 173.714 65.4V70.75C173.714 71.6833 173.697 72.5667 173.664 73.4C173.631 74.2333 173.581 74.8667 173.514 75.3C173.881 75.2667 174.347 75.25 174.914 75.25C175.481 75.2167 176.031 75.2 176.564 75.2C177.131 75.1667 177.531 75.15 177.764 75.15V79H162.914ZM176.114 61.8C177.981 61.8 179.481 61.5333 180.614 61C181.747 60.4333 182.564 59.6 183.064 58.5C183.597 57.3667 183.864 55.95 183.864 54.25C183.864 52.65 183.614 51.4 183.114 50.5C182.614 49.5667 181.981 48.8833 181.214 48.45C180.481 47.9833 179.731 47.7 178.964 47.6C178.197 47.4667 177.564 47.4 177.064 47.4C176.364 47.4 175.764 47.4833 175.264 47.65C174.764 47.8167 174.381 48.1833 174.114 48.75C173.847 49.3167 173.714 50.1833 173.714 51.35V61.6C174.081 61.6333 174.464 61.6833 174.864 61.75C175.264 61.7833 175.681 61.8 176.114 61.8ZM211.541 47.3C210.808 47.3333 210.175 47.4333 209.641 47.6C209.108 47.7667 208.691 48.15 208.391 48.75C208.125 49.3167 207.991 50.2833 207.991 51.65V70.8C207.991 71.7 207.975 72.5667 207.941 73.4C207.908 74.2333 207.858 74.8667 207.791 75.3C208.325 75.2333 208.991 75.2 209.791 75.2C210.625 75.1667 211.208 75.15 211.541 75.15V79H197.191V75.7C197.958 75.6667 198.591 75.5667 199.091 75.4C199.625 75.2333 200.025 74.85 200.291 74.25C200.591 73.65 200.741 72.6833 200.741 71.35V52.2C200.741 51.3 200.758 50.4333 200.791 49.6C200.858 48.7667 200.908 48.1333 200.941 47.7C200.408 47.7333 199.741 47.7667 198.941 47.8C198.141 47.8 197.558 47.8167 197.191 47.85V44H211.541V47.3ZM216.527 79V75.7C217.294 75.6667 217.927 75.5667 218.427 75.4C218.961 75.2333 219.361 74.85 219.627 74.25C219.927 73.65 220.077 72.6833 220.077 71.35V52.2C220.077 51.3 220.094 50.4333 220.127 49.6C220.194 48.7667 220.244 48.1333 220.277 47.7C219.744 47.7333 219.077 47.7667 218.277 47.8C217.477 47.8 216.894 47.8167 216.527 47.85V44H230.877V47.3C230.144 47.3333 229.511 47.4333 228.977 47.6C228.444 47.7667 228.027 48.15 227.727 48.75C227.461 49.3167 227.327 50.2833 227.327 51.65V70.8C227.327 71.7 227.311 72.55 227.277 73.35C227.244 74.15 227.194 74.7667 227.127 75.2H233.827C235.794 75.1667 237.327 74.4833 238.427 73.15C239.561 71.7833 240.127 69.7333 240.127 67H243.477L243.177 79H216.527ZM246.703 79V75.7C247.47 75.6667 248.103 75.5667 248.603 75.4C249.136 75.2333 249.536 74.85 249.803 74.25C250.103 73.65 250.253 72.6833 250.253 71.35V52.2C250.253 51.3 250.27 50.4333 250.303 49.6C250.37 48.7667 250.42 48.1333 250.453 47.7C249.92 47.7333 249.253 47.7667 248.453 47.8C247.653 47.8 247.07 47.8167 246.703 47.85V44H261.053V47.3C260.32 47.3333 259.686 47.4333 259.153 47.6C258.62 47.7667 258.203 48.15 257.903 48.75C257.636 49.3167 257.503 50.2833 257.503 51.65V70.8C257.503 71.7 257.486 72.55 257.453 73.35C257.42 74.15 257.37 74.7667 257.303 75.2H264.003C265.97 75.1667 267.503 74.4833 268.603 73.15C269.736 71.7833 270.303 69.7333 270.303 67H273.653L273.353 79H246.703ZM275.214 79V75.55C276.147 75.55 276.897 75.2833 277.464 74.75C278.03 74.2167 278.497 73.5167 278.864 72.65C279.264 71.7833 279.647 70.85 280.014 69.85L289.764 43.1H293.264L303.914 70.35C304.114 70.85 304.38 71.6167 304.714 72.65C305.047 73.65 305.247 74.5333 305.314 75.3C305.88 75.2333 306.414 75.2 306.914 75.2C307.447 75.1667 307.88 75.15 308.214 75.15V79H294.764V75.7C295.697 75.7 296.33 75.5167 296.664 75.15C297.03 74.75 297.197 74.2167 297.164 73.55C297.13 72.8833 296.947 72.1333 296.614 71.3L295.614 68.55L284.764 68.75L283.964 71.1C283.797 71.5333 283.547 72.1833 283.214 73.05C282.914 73.8833 282.63 74.5833 282.364 75.15C282.897 75.0833 283.53 75.05 284.264 75.05C285.03 75.0167 285.58 75 285.914 75V79H275.214ZM286.014 65H294.364L292.064 58.75C291.63 57.55 291.247 56.35 290.914 55.15C290.58 53.9167 290.33 52.8333 290.164 51.9H290.114C289.98 52.4667 289.78 53.3167 289.514 54.45C289.247 55.5833 288.83 56.9333 288.264 58.5L286.014 65Z" fill="#F6F3F7"/>
<path d="M72.0695 103.23C72.0695 102.35 71.9495 101.72 71.7095 101.34C71.4695 100.96 71.0895 100.73 70.5695 100.65C70.0495 100.57 69.3595 100.55 68.4995 100.59L66.3095 100.68V107.55C66.3095 108.09 66.2995 108.55 66.2795 108.93C66.2795 109.31 66.2595 109.63 66.2195 109.89L71.9495 109.8C72.8295 109.78 73.5895 109.64 74.2295 109.38C74.8695 109.1 75.3695 108.62 75.7295 107.94C76.0895 107.26 76.2695 106.33 76.2695 105.15H77.2895L77.1095 111H61.6295V110.01C62.3895 109.97 62.9095 109.8 63.1895 109.5C63.4695 109.18 63.6195 108.75 63.6395 108.21C63.6795 107.65 63.6995 107.02 63.6995 106.32V93.36C63.6995 92.96 63.7095 92.58 63.7295 92.22C63.7495 91.84 63.7695 91.5 63.7895 91.2C63.4295 91.22 63.0695 91.24 62.7095 91.26C62.3495 91.28 61.9895 91.3 61.6295 91.32V90H76.0595L76.2095 95.25H75.2195C75.2195 94.07 75.0395 93.18 74.6795 92.58C74.3195 91.96 73.8295 91.55 73.2095 91.35C72.6095 91.13 71.9295 91.03 71.1695 91.05L68.5895 91.11C67.8495 91.13 67.3195 91.27 66.9995 91.53C66.6795 91.79 66.4795 92.18 66.3995 92.7C66.3395 93.2 66.3095 93.86 66.3095 94.68V99.48L71.9495 99.51L71.7395 96.93H73.0595V103.23H72.0695ZM92.0816 96.36C92.0216 95.4 91.7916 94.49 91.3916 93.63C90.9916 92.77 90.4116 92.07 89.6516 91.53C88.8916 90.99 87.9216 90.72 86.7416 90.72C85.5016 90.72 84.5516 91.07 83.8916 91.77C83.2316 92.47 82.9016 93.29 82.9016 94.23C82.9016 95.07 83.1416 95.78 83.6216 96.36C84.1016 96.92 84.7216 97.42 85.4816 97.86C86.2616 98.28 87.0816 98.69 87.9416 99.09C88.7016 99.43 89.4616 99.8 90.2216 100.2C90.9816 100.58 91.6716 101.02 92.2916 101.52C92.9116 102.02 93.4016 102.62 93.7616 103.32C94.1416 104 94.3316 104.82 94.3316 105.78C94.3316 106.88 94.0516 107.86 93.4916 108.72C92.9516 109.58 92.1616 110.26 91.1216 110.76C90.0816 111.24 88.8116 111.48 87.3116 111.48C86.4116 111.48 85.4816 111.35 84.5216 111.09C83.5616 110.83 82.7116 110.45 81.9716 109.95L82.1216 111.24H80.5616L80.3816 104.85H81.5516C81.6516 106.61 82.2616 107.95 83.3816 108.87C84.5016 109.77 85.8516 110.22 87.4316 110.22C88.2116 110.22 88.9316 110.08 89.5916 109.8C90.2516 109.5 90.7716 109.07 91.1516 108.51C91.5516 107.95 91.7516 107.27 91.7516 106.47C91.7516 105.57 91.5116 104.82 91.0316 104.22C90.5516 103.62 89.9316 103.1 89.1716 102.66C88.4116 102.22 87.6016 101.8 86.7416 101.4C85.9816 101.06 85.2316 100.7 84.4916 100.32C83.7516 99.94 83.0716 99.51 82.4516 99.03C81.8516 98.53 81.3616 97.94 80.9816 97.26C80.6216 96.58 80.4416 95.76 80.4416 94.8C80.4416 94.28 80.5316 93.72 80.7116 93.12C80.8916 92.52 81.2016 91.95 81.6416 91.41C82.1016 90.85 82.7216 90.4 83.5016 90.06C84.3016 89.7 85.3116 89.52 86.5316 89.52C87.2916 89.52 88.1416 89.63 89.0816 89.85C90.0416 90.05 90.9316 90.45 91.7516 91.05L91.6316 89.76H93.1616V96.36H92.0816ZM113.033 96.33C113.013 95.15 112.893 94.17 112.673 93.39C112.453 92.61 112.063 92.03 111.503 91.65C110.963 91.25 110.173 91.06 109.133 91.08H106.583L106.553 107.43C106.553 107.97 106.543 108.44 106.523 108.84C106.523 109.22 106.503 109.54 106.463 109.8C106.883 109.78 107.293 109.76 107.693 109.74C108.113 109.72 108.533 109.7 108.953 109.68V111H101.903V110.01C102.663 109.97 103.173 109.79 103.433 109.47C103.713 109.15 103.863 108.72 103.883 108.18C103.923 107.62 103.943 107 103.943 106.32L103.973 91.11L100.883 91.14C99.6231 91.14 98.7331 91.56 98.2131 92.4C97.6931 93.24 97.4331 94.55 97.4331 96.33H96.3231L96.5031 90H113.993L114.173 96.33H113.033ZM122.31 88.2L121.65 87.33L125.43 83.73C125.83 83.39 126.17 83.21 126.45 83.19C126.75 83.17 126.98 83.22 127.14 83.34C127.32 83.44 127.42 83.52 127.44 83.58C127.5 83.66 127.55 83.81 127.59 84.03C127.65 84.23 127.62 84.46 127.5 84.72C127.4 84.98 127.12 85.25 126.66 85.53L122.31 88.2ZM113.94 111V110.01C114.54 110.01 115 109.85 115.32 109.53C115.64 109.21 115.9 108.77 116.1 108.21C116.32 107.65 116.57 107 116.85 106.26L123.03 89.43H123.75L130.44 106.5C130.6 106.92 130.78 107.46 130.98 108.12C131.18 108.78 131.26 109.34 131.22 109.8C131.56 109.78 131.9 109.76 132.24 109.74C132.58 109.72 132.92 109.7 133.26 109.68V111H126.39V110.01C127.15 109.99 127.65 109.82 127.89 109.5C128.13 109.18 128.22 108.8 128.16 108.36C128.1 107.92 128 107.52 127.86 107.16L126.81 104.34L119.01 104.52L117.96 107.73C117.82 108.21 117.69 108.59 117.57 108.87C117.47 109.15 117.35 109.46 117.21 109.8C117.61 109.78 118 109.76 118.38 109.74C118.78 109.72 119.17 109.7 119.55 109.68V111H113.94ZM119.46 103.23H126.39L124.26 97.5C124.04 96.88 123.81 96.27 123.57 95.67C123.35 95.05 123.13 94.43 122.91 93.81H122.85C122.65 94.37 122.44 94.93 122.22 95.49C122.02 96.05 121.81 96.62 121.59 97.2L119.46 103.23ZM142.43 110.01C143.19 109.97 143.71 109.8 143.99 109.5C144.27 109.18 144.42 108.75 144.44 108.21C144.48 107.65 144.5 107.02 144.5 106.32V93.36C144.5 92.96 144.51 92.58 144.53 92.22C144.55 91.84 144.57 91.5 144.59 91.2C144.23 91.22 143.87 91.24 143.51 91.26C143.15 91.28 142.79 91.3 142.43 91.32V90C143.49 89.98 144.58 89.97 145.7 89.97C146.82 89.95 147.96 89.94 149.12 89.94C151.06 89.94 152.69 90.16 154.01 90.6C155.33 91.04 156.34 91.69 157.04 92.55C157.74 93.41 158.12 94.48 158.18 95.76C158.22 96.54 158.1 97.36 157.82 98.22C157.56 99.06 157.06 99.86 156.32 100.62C155.6 101.36 154.58 101.96 153.26 102.42C151.94 102.88 150.25 103.11 148.19 103.11C148.11 103.11 147.96 103.11 147.74 103.11C147.52 103.11 147.31 103.1 147.11 103.08V107.43C147.11 107.97 147.1 108.44 147.08 108.84C147.08 109.22 147.06 109.54 147.02 109.8C147.34 109.78 147.65 109.76 147.95 109.74C148.25 109.72 148.55 109.71 148.85 109.71C149.17 109.69 149.48 109.67 149.78 109.65V111H142.43V110.01ZM147.11 101.85C147.49 101.89 147.81 101.92 148.07 101.94C148.35 101.94 148.68 101.94 149.06 101.94C150.2 101.94 151.24 101.72 152.18 101.28C153.12 100.82 153.87 100.17 154.43 99.33C154.99 98.49 155.27 97.49 155.27 96.33C155.27 95.39 155.12 94.59 154.82 93.93C154.52 93.25 154.09 92.71 153.53 92.31C152.99 91.89 152.34 91.59 151.58 91.41C150.82 91.21 149.98 91.11 149.06 91.11C148.36 91.11 147.87 91.26 147.59 91.56C147.33 91.86 147.18 92.28 147.14 92.82C147.12 93.34 147.11 93.96 147.11 94.68V101.85ZM160.477 111V110.01C161.237 109.97 161.757 109.8 162.037 109.5C162.317 109.18 162.467 108.75 162.487 108.21C162.527 107.65 162.547 107.02 162.547 106.32V93.36C162.547 92.96 162.557 92.58 162.577 92.22C162.597 91.84 162.617 91.5 162.637 91.2C162.277 91.22 161.917 91.24 161.557 91.26C161.197 91.28 160.837 91.3 160.477 91.32V90C161.597 89.98 162.727 89.96 163.867 89.94C165.027 89.92 166.187 89.93 167.347 89.97C169.287 89.99 170.847 90.22 172.027 90.66C173.227 91.08 174.107 91.69 174.667 92.49C175.227 93.27 175.507 94.22 175.507 95.34C175.527 96.12 175.377 96.92 175.057 97.74C174.757 98.54 174.197 99.26 173.377 99.9C172.577 100.54 171.417 101.02 169.897 101.34C170.297 101.62 170.647 101.98 170.947 102.42C171.247 102.86 171.587 103.37 171.967 103.95L174.007 107.16C174.347 107.7 174.677 108.19 174.997 108.63C175.317 109.05 175.687 109.39 176.107 109.65C176.527 109.89 177.047 110.01 177.667 110.01V111H173.887C173.307 110.48 172.817 109.96 172.417 109.44C172.037 108.92 171.637 108.33 171.217 107.67L169.207 104.46C168.947 104.04 168.647 103.56 168.307 103.02C167.987 102.46 167.617 101.99 167.197 101.61C166.877 101.63 166.537 101.64 166.177 101.64C165.837 101.64 165.497 101.63 165.157 101.61V107.43C165.157 107.97 165.147 108.44 165.127 108.84C165.127 109.22 165.107 109.54 165.067 109.8C165.307 109.78 165.547 109.77 165.787 109.77C166.027 109.75 166.267 109.73 166.507 109.71C166.747 109.69 166.987 109.68 167.227 109.68V111H160.477ZM167.017 100.5C168.117 100.46 169.077 100.28 169.897 99.96C170.737 99.64 171.397 99.13 171.877 98.43C172.357 97.73 172.597 96.81 172.597 95.67C172.597 94.91 172.487 94.25 172.267 93.69C172.067 93.11 171.747 92.63 171.307 92.25C170.867 91.87 170.307 91.59 169.627 91.41C168.947 91.21 168.147 91.11 167.227 91.11C166.487 91.11 165.967 91.26 165.667 91.56C165.387 91.86 165.227 92.28 165.187 92.82C165.167 93.34 165.157 93.96 165.157 94.68V100.44C165.477 100.46 165.777 100.48 166.057 100.5C166.357 100.52 166.677 100.52 167.017 100.5ZM189.755 103.23C189.755 102.35 189.635 101.72 189.395 101.34C189.155 100.96 188.775 100.73 188.255 100.65C187.735 100.57 187.045 100.55 186.185 100.59L183.995 100.68V107.55C183.995 108.09 183.985 108.55 183.965 108.93C183.965 109.31 183.945 109.63 183.905 109.89L189.635 109.8C190.515 109.78 191.275 109.64 191.915 109.38C192.555 109.1 193.055 108.62 193.415 107.94C193.775 107.26 193.955 106.33 193.955 105.15H194.975L194.795 111H179.315V110.01C180.075 109.97 180.595 109.8 180.875 109.5C181.155 109.18 181.305 108.75 181.325 108.21C181.365 107.65 181.385 107.02 181.385 106.32V93.36C181.385 92.96 181.395 92.58 181.415 92.22C181.435 91.84 181.455 91.5 181.475 91.2C181.115 91.22 180.755 91.24 180.395 91.26C180.035 91.28 179.675 91.3 179.315 91.32V90H193.745L193.895 95.25H192.905C192.905 94.07 192.725 93.18 192.365 92.58C192.005 91.96 191.515 91.55 190.895 91.35C190.295 91.13 189.615 91.03 188.855 91.05L186.275 91.11C185.535 91.13 185.005 91.27 184.685 91.53C184.365 91.79 184.165 92.18 184.085 92.7C184.025 93.2 183.995 93.86 183.995 94.68V99.48L189.635 99.51L189.425 96.93H190.745V103.23H189.755ZM197.977 110.01C198.737 109.97 199.257 109.8 199.537 109.5C199.817 109.18 199.967 108.75 199.987 108.21C200.027 107.65 200.047 107.02 200.047 106.32V93.36C200.047 92.96 200.057 92.58 200.077 92.22C200.097 91.84 200.117 91.5 200.137 91.2C199.777 91.22 199.417 91.24 199.057 91.26C198.697 91.28 198.337 91.3 197.977 91.32V90C199.037 89.98 200.127 89.97 201.247 89.97C202.367 89.95 203.507 89.94 204.667 89.94C206.607 89.94 208.237 90.16 209.557 90.6C210.877 91.04 211.887 91.69 212.587 92.55C213.287 93.41 213.667 94.48 213.727 95.76C213.767 96.54 213.647 97.36 213.367 98.22C213.107 99.06 212.607 99.86 211.867 100.62C211.147 101.36 210.127 101.96 208.807 102.42C207.487 102.88 205.797 103.11 203.737 103.11C203.657 103.11 203.507 103.11 203.287 103.11C203.067 103.11 202.857 103.1 202.657 103.08V107.43C202.657 107.97 202.647 108.44 202.627 108.84C202.627 109.22 202.607 109.54 202.567 109.8C202.887 109.78 203.197 109.76 203.497 109.74C203.797 109.72 204.097 109.71 204.397 109.71C204.717 109.69 205.027 109.67 205.327 109.65V111H197.977V110.01ZM202.657 101.85C203.037 101.89 203.357 101.92 203.617 101.94C203.897 101.94 204.227 101.94 204.607 101.94C205.747 101.94 206.787 101.72 207.727 101.28C208.667 100.82 209.417 100.17 209.977 99.33C210.537 98.49 210.817 97.49 210.817 96.33C210.817 95.39 210.667 94.59 210.367 93.93C210.067 93.25 209.637 92.71 209.077 92.31C208.537 91.89 207.887 91.59 207.127 91.41C206.367 91.21 205.527 91.11 204.607 91.11C203.907 91.11 203.417 91.26 203.137 91.56C202.877 91.86 202.727 92.28 202.687 92.82C202.667 93.34 202.657 93.96 202.657 94.68V101.85ZM213.315 111V110.01C213.915 110.01 214.375 109.85 214.695 109.53C215.015 109.21 215.275 108.77 215.475 108.21C215.695 107.65 215.945 107 216.225 106.26L222.405 89.43H223.125L229.815 106.5C229.975 106.92 230.155 107.46 230.355 108.12C230.555 108.78 230.635 109.34 230.595 109.8C230.935 109.78 231.275 109.76 231.615 109.74C231.955 109.72 232.295 109.7 232.635 109.68V111H225.765V110.01C226.525 109.99 227.025 109.82 227.265 109.5C227.505 109.18 227.595 108.8 227.535 108.36C227.475 107.92 227.375 107.52 227.235 107.16L226.185 104.34L218.385 104.52L217.335 107.73C217.195 108.21 217.065 108.59 216.945 108.87C216.845 109.15 216.725 109.46 216.585 109.8C216.985 109.78 217.375 109.76 217.755 109.74C218.155 109.72 218.545 109.7 218.925 109.68V111H213.315ZM218.835 103.23H225.765L223.635 97.5C223.415 96.88 223.185 96.27 222.945 95.67C222.725 95.05 222.505 94.43 222.285 93.81H222.225C222.025 94.37 221.815 94.93 221.595 95.49C221.395 96.05 221.185 96.62 220.965 97.2L218.835 103.23ZM233.924 111V110.01C234.684 109.97 235.204 109.8 235.484 109.5C235.764 109.18 235.914 108.75 235.934 108.21C235.974 107.65 235.994 107.02 235.994 106.32V93.36C235.994 92.96 236.004 92.58 236.024 92.22C236.044 91.84 236.064 91.5 236.084 91.2C235.724 91.22 235.364 91.24 235.004 91.26C234.644 91.28 234.284 91.3 233.924 91.32V90C235.044 89.98 236.174 89.96 237.314 89.94C238.474 89.92 239.634 89.93 240.794 89.97C242.734 89.99 244.294 90.22 245.474 90.66C246.674 91.08 247.554 91.69 248.114 92.49C248.674 93.27 248.954 94.22 248.954 95.34C248.974 96.12 248.824 96.92 248.504 97.74C248.204 98.54 247.644 99.26 246.824 99.9C246.024 100.54 244.864 101.02 243.344 101.34C243.744 101.62 244.094 101.98 244.394 102.42C244.694 102.86 245.034 103.37 245.414 103.95L247.454 107.16C247.794 107.7 248.124 108.19 248.444 108.63C248.764 109.05 249.134 109.39 249.554 109.65C249.974 109.89 250.494 110.01 251.114 110.01V111H247.334C246.754 110.48 246.264 109.96 245.864 109.44C245.484 108.92 245.084 108.33 244.664 107.67L242.654 104.46C242.394 104.04 242.094 103.56 241.754 103.02C241.434 102.46 241.064 101.99 240.644 101.61C240.324 101.63 239.984 101.64 239.624 101.64C239.284 101.64 238.944 101.63 238.604 101.61V107.43C238.604 107.97 238.594 108.44 238.574 108.84C238.574 109.22 238.554 109.54 238.514 109.8C238.754 109.78 238.994 109.77 239.234 109.77C239.474 109.75 239.714 109.73 239.954 109.71C240.194 109.69 240.434 109.68 240.674 109.68V111H233.924ZM240.464 100.5C241.564 100.46 242.524 100.28 243.344 99.96C244.184 99.64 244.844 99.13 245.324 98.43C245.804 97.73 246.044 96.81 246.044 95.67C246.044 94.91 245.934 94.25 245.714 93.69C245.514 93.11 245.194 92.63 244.754 92.25C244.314 91.87 243.754 91.59 243.074 91.41C242.394 91.21 241.594 91.11 240.674 91.11C239.934 91.11 239.414 91.26 239.114 91.56C238.834 91.86 238.674 92.28 238.634 92.82C238.614 93.34 238.604 93.96 238.604 94.68V100.44C238.924 100.46 239.224 100.48 239.504 100.5C239.804 100.52 240.124 100.52 240.464 100.5ZM252.397 111V110.01C252.997 110.01 253.457 109.85 253.777 109.53C254.097 109.21 254.357 108.77 254.557 108.21C254.777 107.65 255.027 107 255.307 106.26L261.487 89.43H262.207L268.897 106.5C269.057 106.92 269.237 107.46 269.437 108.12C269.637 108.78 269.717 109.34 269.677 109.8C270.017 109.78 270.357 109.76 270.697 109.74C271.037 109.72 271.377 109.7 271.717 109.68V111H264.847V110.01C265.607 109.99 266.107 109.82 266.347 109.5C266.587 109.18 266.677 108.8 266.617 108.36C266.557 107.92 266.457 107.52 266.317 107.16L265.267 104.34L257.467 104.52L256.417 107.73C256.277 108.21 256.147 108.59 256.027 108.87C255.927 109.15 255.807 109.46 255.667 109.8C256.067 109.78 256.457 109.76 256.837 109.74C257.237 109.72 257.627 109.7 258.007 109.68V111H252.397ZM257.917 103.23H264.847L262.717 97.5C262.497 96.88 262.267 96.27 262.027 95.67C261.807 95.05 261.587 94.43 261.367 93.81H261.307C261.107 94.37 260.897 94.93 260.677 95.49C260.477 96.05 260.267 96.62 260.047 97.2L257.917 103.23ZM273.006 110.01C273.766 109.97 274.286 109.8 274.566 109.5C274.846 109.18 274.996 108.75 275.016 108.21C275.056 107.65 275.076 107.02 275.076 106.32V93.36C275.076 92.96 275.086 92.58 275.106 92.22C275.126 91.84 275.146 91.5 275.166 91.2C274.806 91.22 274.446 91.24 274.086 91.26C273.726 91.28 273.366 91.3 273.006 91.32V90L280.086 89.97C281.886 89.97 283.536 90.18 285.036 90.6C286.536 91.02 287.826 91.67 288.906 92.55C290.006 93.41 290.846 94.51 291.426 95.85C292.026 97.17 292.326 98.73 292.326 100.53C292.326 101.91 292.086 103.23 291.606 104.49C291.126 105.75 290.406 106.87 289.446 107.85C288.486 108.81 287.286 109.58 285.846 110.16C284.426 110.72 282.776 111 280.896 111H273.006V110.01ZM277.686 107.46C277.686 108 277.676 108.46 277.656 108.84C277.656 109.22 277.636 109.54 277.596 109.8C278.136 109.82 278.626 109.84 279.066 109.86C279.526 109.86 279.906 109.86 280.206 109.86C280.526 109.86 280.726 109.86 280.806 109.86C282.106 109.86 283.276 109.62 284.316 109.14C285.376 108.66 286.276 108 287.016 107.16C287.776 106.3 288.356 105.3 288.756 104.16C289.176 103 289.386 101.75 289.386 100.41C289.386 98.51 289.036 96.87 288.336 95.49C287.656 94.09 286.606 93.01 285.186 92.25C283.766 91.47 281.956 91.08 279.756 91.08C279.016 91.08 278.496 91.23 278.196 91.53C277.916 91.83 277.756 92.25 277.716 92.79C277.696 93.33 277.686 93.96 277.686 94.68V107.46ZM293.061 111V110.01C293.661 110.01 294.121 109.85 294.441 109.53C294.761 109.21 295.021 108.77 295.221 108.21C295.441 107.65 295.691 107 295.971 106.26L302.151 89.43H302.871L309.561 106.5C309.721 106.92 309.901 107.46 310.101 108.12C310.301 108.78 310.381 109.34 310.341 109.8C310.681 109.78 311.021 109.76 311.361 109.74C311.701 109.72 312.041 109.7 312.381 109.68V111H305.511V110.01C306.271 109.99 306.771 109.82 307.011 109.5C307.251 109.18 307.341 108.8 307.281 108.36C307.221 107.92 307.121 107.52 306.981 107.16L305.931 104.34L298.131 104.52L297.081 107.73C296.941 108.21 296.811 108.59 296.691 108.87C296.591 109.15 296.471 109.46 296.331 109.8C296.731 109.78 297.121 109.76 297.501 109.74C297.901 109.72 298.291 109.7 298.671 109.68V111H293.061ZM298.581 103.23H305.511L303.381 97.5C303.161 96.88 302.931 96.27 302.691 95.67C302.471 95.05 302.251 94.43 302.031 93.81H301.971C301.771 94.37 301.561 94.93 301.341 95.49C301.141 96.05 300.931 96.62 300.711 97.2L298.581 103.23Z" fill="#F6F3F7"/>
</svg>
