<svg width="205" height="33" viewBox="0 0 205 33" fill="none" xmlns="http://www.w3.org/2000/svg">
<path d="M33 16C33 24.228 25.8945 31 17 31C8.10546 31 1 24.228 1 16C1 7.77198 8.10546 1 17 1C25.8945 1 33 7.77198 33 16Z" fill="#A77C4A" stroke="#A77C4A" stroke-width="2"/>
<path d="M24.0312 6.125L21.875 8.375L13.1875 17.0625L10.6563 14.625L8.40625 12.375L4 16.7812L6.25 19.0312L10.9375 23.7188L13.0938 25.9688L15.3438 23.7188L26.2812 12.7813L28.5312 10.5313L24.0312 6.125Z" fill="#222025"/>
<path d="M90 17C90 25.228 82.8945 32 74 32C65.1055 32 58 25.228 58 17C58 8.77198 65.1055 2 74 2C82.8945 2 90 8.77198 90 17Z" fill="#A77C4A" stroke="#A77C4A" stroke-width="2"/>
<path d="M81.0312 7.125L78.875 9.375L70.1875 18.0625L67.6563 15.625L65.4062 13.375L61 17.7812L63.25 20.0312L67.9375 24.7188L70.0938 26.9688L72.3438 24.7188L83.2812 13.7813L85.5312 11.5313L81.0312 7.125Z" fill="#222025"/>
<path d="M147 16C147 24.228 139.895 31 131 31C122.105 31 115 24.228 115 16C115 7.77198 122.105 1 131 1C139.895 1 147 7.77198 147 16Z" fill="#A77C4A" stroke="#A77C4A" stroke-width="2"/>
<path d="M138.031 6.125L135.875 8.375L127.188 17.0625L124.656 14.625L122.406 12.375L118 16.7812L120.25 19.0312L124.938 23.7188L127.094 25.9688L129.344 23.7188L140.281 12.7813L142.531 10.5313L138.031 6.125Z" fill="#222025"/>
<path d="M193.666 17.2148V18.6992H183.393V17.6348L189.76 7.78125H191.234L189.652 10.6328L185.443 17.2148H193.666ZM191.684 7.78125V22H189.877V7.78125H191.684Z" fill="#A77C4A"/>
<path d="M204 16C204 24.228 196.895 31 188 31C179.105 31 172 24.228 172 16C172 7.77198 179.105 1 188 1C196.895 1 204 7.77198 204 16Z" stroke="#A77C4A" stroke-width="2"/>
</svg>
