<svg width="205" height="33" viewBox="0 0 205 33" fill="none" xmlns="http://www.w3.org/2000/svg">
<path d="M33 16C33 24.228 25.8945 31 17 31C8.10546 31 1 24.228 1 16C1 7.77198 8.10546 1 17 1C25.8945 1 33 7.77198 33 16Z" fill="#A77C4A" stroke="#A77C4A" stroke-width="2"/>
<path d="M24.0312 6.125L21.875 8.375L13.1875 17.0625L10.6563 14.625L8.40625 12.375L4 16.7812L6.25 19.0312L10.9375 23.7188L13.0938 25.9688L15.3438 23.7188L26.2812 12.7813L28.5312 10.5313L24.0312 6.125Z" fill="#222025"/>
<path d="M90 17C90 25.228 82.8945 32 74 32C65.1055 32 58 25.228 58 17C58 8.77198 65.1055 2 74 2C82.8945 2 90 8.77198 90 17Z" fill="#A77C4A" stroke="#A77C4A" stroke-width="2"/>
<path d="M81.0312 7.125L78.875 9.375L70.1875 18.0625L67.6563 15.625L65.4062 13.375L61 17.7812L63.25 20.0312L67.9375 24.7188L70.0938 26.9688L72.3438 24.7188L83.2812 13.7813L85.5312 11.5313L81.0312 7.125Z" fill="#222025"/>
<path d="M129.693 14.002H130.982C131.614 14.002 132.135 13.8978 132.545 13.6895C132.962 13.4746 133.271 13.1849 133.473 12.8203C133.681 12.4492 133.785 12.0326 133.785 11.5703C133.785 11.0234 133.694 10.5645 133.512 10.1934C133.329 9.82227 133.056 9.54232 132.691 9.35352C132.327 9.16471 131.865 9.07031 131.305 9.07031C130.797 9.07031 130.348 9.17122 129.957 9.37305C129.573 9.56836 129.27 9.84831 129.049 10.2129C128.834 10.5775 128.727 11.0072 128.727 11.502H126.92C126.92 10.7793 127.102 10.1217 127.467 9.5293C127.831 8.93685 128.342 8.46484 129 8.11328C129.664 7.76172 130.432 7.58594 131.305 7.58594C132.164 7.58594 132.916 7.73893 133.561 8.04492C134.205 8.3444 134.706 8.79362 135.064 9.39258C135.423 9.98503 135.602 10.724 135.602 11.6094C135.602 11.9674 135.517 12.3516 135.348 12.7617C135.185 13.1654 134.928 13.543 134.576 13.8945C134.231 14.2461 133.782 14.5358 133.229 14.7637C132.675 14.985 132.011 15.0957 131.236 15.0957H129.693V14.002ZM129.693 15.4863V14.4023H131.236C132.141 14.4023 132.89 14.5098 133.482 14.7246C134.075 14.9395 134.54 15.2259 134.879 15.584C135.224 15.9421 135.465 16.3359 135.602 16.7656C135.745 17.1888 135.816 17.612 135.816 18.0352C135.816 18.6992 135.702 19.2884 135.475 19.8027C135.253 20.3171 134.938 20.7533 134.527 21.1113C134.124 21.4694 133.648 21.7396 133.102 21.9219C132.555 22.1042 131.959 22.1953 131.314 22.1953C130.696 22.1953 130.113 22.1074 129.566 21.9316C129.026 21.7559 128.548 21.502 128.131 21.1699C127.714 20.8314 127.389 20.418 127.154 19.9297C126.92 19.4349 126.803 18.8717 126.803 18.2402H128.609C128.609 18.735 128.717 19.168 128.932 19.5391C129.153 19.9102 129.465 20.1999 129.869 20.4082C130.279 20.61 130.761 20.7109 131.314 20.7109C131.868 20.7109 132.343 20.6165 132.74 20.4277C133.144 20.2324 133.453 19.9395 133.668 19.5488C133.889 19.1582 134 18.6667 134 18.0742C134 17.4818 133.876 16.9967 133.629 16.6191C133.382 16.235 133.03 15.9518 132.574 15.7695C132.125 15.5807 131.594 15.4863 130.982 15.4863H129.693Z" fill="#A77C4A"/>
<path d="M147 16C147 24.228 139.895 31 131 31C122.105 31 115 24.228 115 16C115 7.77198 122.105 1 131 1C139.895 1 147 7.77198 147 16Z" stroke="#A77C4A" stroke-width="2"/>
<path d="M193.666 17.2148V18.6992H183.393V17.6348L189.76 7.78125H191.234L189.652 10.6328L185.443 17.2148H193.666ZM191.684 7.78125V22H189.877V7.78125H191.684Z" fill="#969499"/>
<path d="M204 16C204 24.228 196.895 31 188 31C179.105 31 172 24.228 172 16C172 7.77198 179.105 1 188 1C196.895 1 204 7.77198 204 16Z" stroke="#969499" stroke-width="2"/>
</svg>
