<svg width="371" height="83" viewBox="0 0 371 83" fill="none" xmlns="http://www.w3.org/2000/svg">
<path d="M99.6109 32.01C100.371 31.97 100.891 31.8 101.171 31.5C101.451 31.18 101.601 30.75 101.621 30.21C101.661 29.65 101.681 29.02 101.681 28.32V15.36C101.681 14.96 101.691 14.58 101.711 14.22C101.731 13.84 101.751 13.5 101.771 13.2C101.411 13.22 101.051 13.24 100.691 13.26C100.331 13.28 99.9709 13.3 99.6109 13.32V12C100.671 11.98 101.761 11.97 102.881 11.97C104.001 11.95 105.141 11.94 106.301 11.94C108.241 11.94 109.871 12.16 111.191 12.6C112.511 13.04 113.521 13.69 114.221 14.55C114.921 15.41 115.301 16.48 115.361 17.76C115.401 18.54 115.281 19.36 115.001 20.22C114.741 21.06 114.241 21.86 113.501 22.62C112.781 23.36 111.761 23.96 110.441 24.42C109.121 24.88 107.431 25.11 105.371 25.11C105.291 25.11 105.141 25.11 104.921 25.11C104.701 25.11 104.491 25.1 104.291 25.08V29.43C104.291 29.97 104.281 30.44 104.261 30.84C104.261 31.22 104.241 31.54 104.201 31.8C104.521 31.78 104.831 31.76 105.131 31.74C105.431 31.72 105.731 31.71 106.031 31.71C106.351 31.69 106.661 31.67 106.961 31.65V33H99.6109V32.01ZM104.291 23.85C104.671 23.89 104.991 23.92 105.251 23.94C105.531 23.94 105.861 23.94 106.241 23.94C107.381 23.94 108.421 23.72 109.361 23.28C110.301 22.82 111.051 22.17 111.611 21.33C112.171 20.49 112.451 19.49 112.451 18.33C112.451 17.39 112.301 16.59 112.001 15.93C111.701 15.25 111.271 14.71 110.711 14.31C110.171 13.89 109.521 13.59 108.761 13.41C108.001 13.21 107.161 13.11 106.241 13.11C105.541 13.11 105.051 13.26 104.771 13.56C104.511 13.86 104.361 14.28 104.321 14.82C104.301 15.34 104.291 15.96 104.291 16.68V23.85ZM117.658 33V32.01C118.418 31.97 118.938 31.8 119.218 31.5C119.498 31.18 119.648 30.75 119.668 30.21C119.708 29.65 119.728 29.02 119.728 28.32V15.36C119.728 14.96 119.738 14.58 119.758 14.22C119.778 13.84 119.798 13.5 119.818 13.2C119.458 13.22 119.098 13.24 118.738 13.26C118.378 13.28 118.018 13.3 117.658 13.32V12C118.778 11.98 119.908 11.96 121.048 11.94C122.208 11.92 123.368 11.93 124.528 11.97C126.468 11.99 128.028 12.22 129.208 12.66C130.408 13.08 131.288 13.69 131.848 14.49C132.408 15.27 132.688 16.22 132.688 17.34C132.708 18.12 132.558 18.92 132.238 19.74C131.938 20.54 131.378 21.26 130.558 21.9C129.758 22.54 128.598 23.02 127.078 23.34C127.478 23.62 127.828 23.98 128.128 24.42C128.428 24.86 128.768 25.37 129.148 25.95L131.188 29.16C131.528 29.7 131.858 30.19 132.178 30.63C132.498 31.05 132.868 31.39 133.288 31.65C133.708 31.89 134.228 32.01 134.848 32.01V33H131.068C130.488 32.48 129.998 31.96 129.598 31.44C129.218 30.92 128.818 30.33 128.398 29.67L126.388 26.46C126.128 26.04 125.828 25.56 125.488 25.02C125.168 24.46 124.798 23.99 124.378 23.61C124.058 23.63 123.718 23.64 123.358 23.64C123.018 23.64 122.678 23.63 122.338 23.61V29.43C122.338 29.97 122.328 30.44 122.308 30.84C122.308 31.22 122.288 31.54 122.248 31.8C122.488 31.78 122.728 31.77 122.968 31.77C123.208 31.75 123.448 31.73 123.688 31.71C123.928 31.69 124.168 31.68 124.408 31.68V33H117.658ZM124.198 22.5C125.298 22.46 126.258 22.28 127.078 21.96C127.918 21.64 128.578 21.13 129.058 20.43C129.538 19.73 129.778 18.81 129.778 17.67C129.778 16.91 129.668 16.25 129.448 15.69C129.248 15.11 128.928 14.63 128.488 14.25C128.048 13.87 127.488 13.59 126.808 13.41C126.128 13.21 125.328 13.11 124.408 13.11C123.668 13.11 123.148 13.26 122.848 13.56C122.568 13.86 122.408 14.28 122.368 14.82C122.348 15.34 122.338 15.96 122.338 16.68V22.44C122.658 22.46 122.958 22.48 123.238 22.5C123.538 22.52 123.858 22.52 124.198 22.5ZM146.936 25.23C146.936 24.35 146.816 23.72 146.576 23.34C146.336 22.96 145.956 22.73 145.436 22.65C144.916 22.57 144.226 22.55 143.366 22.59L141.176 22.68V29.55C141.176 30.09 141.166 30.55 141.146 30.93C141.146 31.31 141.126 31.63 141.086 31.89L146.816 31.8C147.696 31.78 148.456 31.64 149.096 31.38C149.736 31.1 150.236 30.62 150.596 29.94C150.956 29.26 151.136 28.33 151.136 27.15H152.156L151.976 33H136.496V32.01C137.256 31.97 137.776 31.8 138.056 31.5C138.336 31.18 138.486 30.75 138.506 30.21C138.546 29.65 138.566 29.02 138.566 28.32V15.36C138.566 14.96 138.576 14.58 138.596 14.22C138.616 13.84 138.636 13.5 138.656 13.2C138.296 13.22 137.936 13.24 137.576 13.26C137.216 13.28 136.856 13.3 136.496 13.32V12H150.926L151.076 17.25H150.086C150.086 16.07 149.906 15.18 149.546 14.58C149.186 13.96 148.696 13.55 148.076 13.35C147.476 13.13 146.796 13.03 146.036 13.05L143.456 13.11C142.716 13.13 142.186 13.27 141.866 13.53C141.546 13.79 141.346 14.18 141.266 14.7C141.206 15.2 141.176 15.86 141.176 16.68V21.48L146.816 21.51L146.606 18.93H147.926V25.23H146.936ZM155.158 32.01C155.918 31.97 156.438 31.8 156.718 31.5C156.998 31.18 157.148 30.75 157.168 30.21C157.208 29.65 157.228 29.02 157.228 28.32V15.36C157.228 14.96 157.238 14.58 157.258 14.22C157.278 13.84 157.298 13.5 157.318 13.2C156.958 13.22 156.598 13.24 156.238 13.26C155.878 13.28 155.518 13.3 155.158 13.32V12C156.218 11.98 157.308 11.97 158.428 11.97C159.548 11.95 160.688 11.94 161.848 11.94C163.788 11.94 165.418 12.16 166.738 12.6C168.058 13.04 169.068 13.69 169.768 14.55C170.468 15.41 170.848 16.48 170.908 17.76C170.948 18.54 170.828 19.36 170.548 20.22C170.288 21.06 169.788 21.86 169.048 22.62C168.328 23.36 167.308 23.96 165.988 24.42C164.668 24.88 162.978 25.11 160.918 25.11C160.838 25.11 160.688 25.11 160.468 25.11C160.248 25.11 160.038 25.1 159.838 25.08V29.43C159.838 29.97 159.828 30.44 159.808 30.84C159.808 31.22 159.788 31.54 159.748 31.8C160.068 31.78 160.378 31.76 160.678 31.74C160.978 31.72 161.278 31.71 161.578 31.71C161.898 31.69 162.208 31.67 162.508 31.65V33H155.158V32.01ZM159.838 23.85C160.218 23.89 160.538 23.92 160.798 23.94C161.078 23.94 161.408 23.94 161.788 23.94C162.928 23.94 163.968 23.72 164.908 23.28C165.848 22.82 166.598 22.17 167.158 21.33C167.718 20.49 167.998 19.49 167.998 18.33C167.998 17.39 167.848 16.59 167.548 15.93C167.248 15.25 166.818 14.71 166.258 14.31C165.718 13.89 165.068 13.59 164.308 13.41C163.548 13.21 162.708 13.11 161.788 13.11C161.088 13.11 160.598 13.26 160.318 13.56C160.058 13.86 159.908 14.28 159.868 14.82C159.848 15.34 159.838 15.96 159.838 16.68V23.85ZM170.496 33V32.01C171.096 32.01 171.556 31.85 171.876 31.53C172.196 31.21 172.456 30.77 172.656 30.21C172.876 29.65 173.126 29 173.406 28.26L179.586 11.43H180.306L186.996 28.5C187.156 28.92 187.336 29.46 187.536 30.12C187.736 30.78 187.816 31.34 187.776 31.8C188.116 31.78 188.456 31.76 188.796 31.74C189.136 31.72 189.476 31.7 189.816 31.68V33H182.946V32.01C183.706 31.99 184.206 31.82 184.446 31.5C184.686 31.18 184.776 30.8 184.716 30.36C184.656 29.92 184.556 29.52 184.416 29.16L183.366 26.34L175.566 26.52L174.516 29.73C174.376 30.21 174.246 30.59 174.126 30.87C174.026 31.15 173.906 31.46 173.766 31.8C174.166 31.78 174.556 31.76 174.936 31.74C175.336 31.72 175.726 31.7 176.106 31.68V33H170.496ZM176.016 25.23H182.946L180.816 19.5C180.596 18.88 180.366 18.27 180.126 17.67C179.906 17.05 179.686 16.43 179.466 15.81H179.406C179.206 16.37 178.996 16.93 178.776 17.49C178.576 18.05 178.366 18.62 178.146 19.2L176.016 25.23ZM191.105 33V32.01C191.865 31.97 192.385 31.8 192.665 31.5C192.945 31.18 193.095 30.75 193.115 30.21C193.155 29.65 193.175 29.02 193.175 28.32V15.36C193.175 14.96 193.185 14.58 193.205 14.22C193.225 13.84 193.245 13.5 193.265 13.2C192.905 13.22 192.545 13.24 192.185 13.26C191.825 13.28 191.465 13.3 191.105 13.32V12C192.225 11.98 193.355 11.96 194.495 11.94C195.655 11.92 196.815 11.93 197.975 11.97C199.915 11.99 201.475 12.22 202.655 12.66C203.855 13.08 204.735 13.69 205.295 14.49C205.855 15.27 206.135 16.22 206.135 17.34C206.155 18.12 206.005 18.92 205.685 19.74C205.385 20.54 204.825 21.26 204.005 21.9C203.205 22.54 202.045 23.02 200.525 23.34C200.925 23.62 201.275 23.98 201.575 24.42C201.875 24.86 202.215 25.37 202.595 25.95L204.635 29.16C204.975 29.7 205.305 30.19 205.625 30.63C205.945 31.05 206.315 31.39 206.735 31.65C207.155 31.89 207.675 32.01 208.295 32.01V33H204.515C203.935 32.48 203.445 31.96 203.045 31.44C202.665 30.92 202.265 30.33 201.845 29.67L199.835 26.46C199.575 26.04 199.275 25.56 198.935 25.02C198.615 24.46 198.245 23.99 197.825 23.61C197.505 23.63 197.165 23.64 196.805 23.64C196.465 23.64 196.125 23.63 195.785 23.61V29.43C195.785 29.97 195.775 30.44 195.755 30.84C195.755 31.22 195.735 31.54 195.695 31.8C195.935 31.78 196.175 31.77 196.415 31.77C196.655 31.75 196.895 31.73 197.135 31.71C197.375 31.69 197.615 31.68 197.855 31.68V33H191.105ZM197.645 22.5C198.745 22.46 199.705 22.28 200.525 21.96C201.365 21.64 202.025 21.13 202.505 20.43C202.985 19.73 203.225 18.81 203.225 17.67C203.225 16.91 203.115 16.25 202.895 15.69C202.695 15.11 202.375 14.63 201.935 14.25C201.495 13.87 200.935 13.59 200.255 13.41C199.575 13.21 198.775 13.11 197.855 13.11C197.115 13.11 196.595 13.26 196.295 13.56C196.015 13.86 195.855 14.28 195.815 14.82C195.795 15.34 195.785 15.96 195.785 16.68V22.44C196.105 22.46 196.405 22.48 196.685 22.5C196.985 22.52 197.305 22.52 197.645 22.5ZM209.578 33V32.01C210.178 32.01 210.638 31.85 210.958 31.53C211.278 31.21 211.538 30.77 211.738 30.21C211.958 29.65 212.208 29 212.488 28.26L218.668 11.43H219.388L226.078 28.5C226.238 28.92 226.418 29.46 226.618 30.12C226.818 30.78 226.898 31.34 226.858 31.8C227.198 31.78 227.538 31.76 227.878 31.74C228.218 31.72 228.558 31.7 228.898 31.68V33H222.028V32.01C222.788 31.99 223.288 31.82 223.528 31.5C223.768 31.18 223.858 30.8 223.798 30.36C223.738 29.92 223.638 29.52 223.498 29.16L222.448 26.34L214.648 26.52L213.598 29.73C213.458 30.21 213.328 30.59 213.208 30.87C213.108 31.15 212.988 31.46 212.848 31.8C213.248 31.78 213.638 31.76 214.018 31.74C214.418 31.72 214.808 31.7 215.188 31.68V33H209.578ZM215.098 25.23H222.028L219.898 19.5C219.678 18.88 219.448 18.27 219.208 17.67C218.988 17.05 218.768 16.43 218.548 15.81H218.488C218.288 16.37 218.078 16.93 217.858 17.49C217.658 18.05 217.448 18.62 217.228 19.2L215.098 25.23ZM238.068 33V32.01C238.828 31.97 239.348 31.8 239.628 31.5C239.908 31.18 240.058 30.75 240.078 30.21C240.118 29.65 240.138 29.02 240.138 28.32V15.36C240.138 14.96 240.148 14.58 240.168 14.22C240.188 13.84 240.208 13.5 240.228 13.2C239.868 13.22 239.508 13.24 239.148 13.26C238.788 13.28 238.428 13.3 238.068 13.32V12H244.818V12.99C244.078 13.01 243.558 13.18 243.258 13.5C242.978 13.82 242.818 14.25 242.778 14.79C242.758 15.33 242.748 15.96 242.748 16.68V29.55C242.748 30.09 242.738 30.55 242.718 30.93C242.718 31.31 242.698 31.63 242.658 31.89L248.268 31.8C249.528 31.78 250.478 31.38 251.118 30.6C251.778 29.82 252.108 28.55 252.108 26.79H253.128L252.948 33H238.068ZM254.08 33V32.01C254.68 32.01 255.14 31.85 255.46 31.53C255.78 31.21 256.04 30.77 256.24 30.21C256.46 29.65 256.71 29 256.99 28.26L263.17 11.43H263.89L270.58 28.5C270.74 28.92 270.92 29.46 271.12 30.12C271.32 30.78 271.4 31.34 271.36 31.8C271.7 31.78 272.04 31.76 272.38 31.74C272.72 31.72 273.06 31.7 273.4 31.68V33H266.53V32.01C267.29 31.99 267.79 31.82 268.03 31.5C268.27 31.18 268.36 30.8 268.3 30.36C268.24 29.92 268.14 29.52 268 29.16L266.95 26.34L259.15 26.52L258.1 29.73C257.96 30.21 257.83 30.59 257.71 30.87C257.61 31.15 257.49 31.46 257.35 31.8C257.75 31.78 258.14 31.76 258.52 31.74C258.92 31.72 259.31 31.7 259.69 31.68V33H254.08ZM259.6 25.23H266.53L264.4 19.5C264.18 18.88 263.95 18.27 263.71 17.67C263.49 17.05 263.27 16.43 263.05 15.81H262.99C262.79 16.37 262.58 16.93 262.36 17.49C262.16 18.05 261.95 18.62 261.73 19.2L259.6 25.23Z" fill="#F6F3F7"/>
<path d="M65.5879 75.7C66.3546 75.6667 66.9879 75.5667 67.4879 75.4C68.0212 75.2333 68.4212 74.85 68.6879 74.25C68.9879 73.65 69.1379 72.6833 69.1379 71.35V52.2C69.1379 51.3 69.1546 50.4333 69.1879 49.6C69.2546 48.7667 69.3046 48.1333 69.3379 47.7C68.8046 47.7333 68.1379 47.7667 67.3379 47.8C66.5379 47.8 65.9546 47.8167 65.5879 47.85V44C67.9546 43.9667 70.3212 43.95 72.6879 43.95C75.0546 43.95 77.4212 43.9333 79.7879 43.9C82.7212 43.8667 85.2712 44.25 87.4379 45.05C89.6379 45.85 91.3212 47.0833 92.4879 48.75C93.6879 50.4167 94.2546 52.5833 94.1879 55.25C94.1546 56.5833 93.8379 57.9 93.2379 59.2C92.6379 60.4667 91.7546 61.6333 90.5879 62.7C89.4212 63.7333 87.9546 64.5833 86.1879 65.25C84.4212 65.9167 82.3546 66.2833 79.9879 66.35C79.2546 66.3833 78.6046 66.4 78.0379 66.4C77.5046 66.4 76.9546 66.3833 76.3879 66.35V70.75C76.3879 71.6833 76.3712 72.5667 76.3379 73.4C76.3046 74.2333 76.2546 74.8667 76.1879 75.3C76.5546 75.2667 77.0212 75.25 77.5879 75.25C78.1546 75.2167 78.7046 75.2 79.2379 75.2C79.8046 75.1667 80.2046 75.15 80.4379 75.15V79H65.5879V75.7ZM76.3879 62.6C76.7546 62.6333 77.1212 62.6667 77.4879 62.7C77.8546 62.7333 78.2379 62.75 78.6379 62.75C80.4712 62.75 81.9546 62.45 83.0879 61.85C84.2546 61.2167 85.1046 60.3167 85.6379 59.15C86.1712 57.95 86.4379 56.5 86.4379 54.8C86.4379 53.1333 86.2046 51.8 85.7379 50.8C85.3046 49.8 84.7379 49.0667 84.0379 48.6C83.3379 48.1 82.6046 47.7833 81.8379 47.65C81.0712 47.4833 80.3712 47.4 79.7379 47.4C79.0379 47.4 78.4379 47.4833 77.9379 47.65C77.4379 47.8167 77.0546 48.1833 76.7879 48.75C76.5212 49.3167 76.3879 50.1833 76.3879 51.35V62.6ZM92.4383 79V75.55C93.3716 75.55 94.1216 75.2833 94.6883 74.75C95.2549 74.2167 95.7216 73.5167 96.0883 72.65C96.4883 71.7833 96.8716 70.85 97.2383 69.85L106.988 43.1H110.488L121.138 70.35C121.338 70.85 121.605 71.6167 121.938 72.65C122.272 73.65 122.472 74.5333 122.538 75.3C123.105 75.2333 123.638 75.2 124.138 75.2C124.672 75.1667 125.105 75.15 125.438 75.15V79H111.988V75.7C112.922 75.7 113.555 75.5167 113.888 75.15C114.255 74.75 114.422 74.2167 114.388 73.55C114.355 72.8833 114.172 72.1333 113.838 71.3L112.838 68.55L101.988 68.75L101.188 71.1C101.022 71.5333 100.772 72.1833 100.438 73.05C100.138 73.8833 99.8549 74.5833 99.5883 75.15C100.122 75.0833 100.755 75.05 101.488 75.05C102.255 75.0167 102.805 75 103.138 75V79H92.4383ZM103.238 65H111.588L109.288 58.75C108.855 57.55 108.472 56.35 108.138 55.15C107.805 53.9167 107.555 52.8333 107.388 51.9H107.338C107.205 52.4667 107.005 53.3167 106.738 54.45C106.472 55.5833 106.055 56.9333 105.488 58.5L103.238 65ZM128.137 79V75.7C128.903 75.6667 129.537 75.5667 130.037 75.4C130.57 75.2333 130.97 74.85 131.237 74.25C131.537 73.65 131.687 72.6833 131.687 71.35V52.2C131.687 51.3 131.703 50.4333 131.737 49.6C131.803 48.7667 131.853 48.1333 131.887 47.7C131.353 47.7333 130.687 47.7667 129.887 47.8C129.087 47.8 128.503 47.8167 128.137 47.85V44C130.503 43.9667 132.87 43.95 135.237 43.95C137.603 43.95 139.97 43.9333 142.337 43.9C145.27 43.8667 147.82 44.2 149.987 44.9C152.153 45.6 153.82 46.7333 154.987 48.3C156.153 49.8667 156.703 51.9833 156.637 54.65C156.603 56.05 156.253 57.3833 155.587 58.65C154.953 59.9167 153.987 61.0333 152.687 62C151.42 62.9667 149.803 63.7333 147.837 64.3C148.47 64.5667 149.087 65 149.687 65.6C150.32 66.2 150.853 66.8333 151.287 67.5L153.637 71C154.37 72.1333 155.02 73.0333 155.587 73.7C156.153 74.3667 156.72 74.8667 157.287 75.2C157.853 75.5 158.503 75.6667 159.237 75.7V79H150.987C150.387 78.5667 149.787 77.95 149.187 77.15C148.62 76.3167 148.003 75.3667 147.337 74.3L143.637 68.3C143.203 67.6333 142.82 67.0667 142.487 66.6C142.187 66.1333 141.87 65.7333 141.537 65.4C141.003 65.4 140.553 65.4 140.187 65.4C139.82 65.4 139.403 65.4 138.937 65.4V70.75C138.937 71.6833 138.92 72.5667 138.887 73.4C138.853 74.2333 138.803 74.8667 138.737 75.3C139.103 75.2667 139.57 75.25 140.137 75.25C140.703 75.2167 141.253 75.2 141.787 75.2C142.353 75.1667 142.753 75.15 142.987 75.15V79H128.137ZM141.337 61.8C143.203 61.8 144.703 61.5333 145.837 61C146.97 60.4333 147.787 59.6 148.287 58.5C148.82 57.3667 149.087 55.95 149.087 54.25C149.087 52.65 148.837 51.4 148.337 50.5C147.837 49.5667 147.203 48.8833 146.437 48.45C145.703 47.9833 144.953 47.7 144.187 47.6C143.42 47.4667 142.787 47.4 142.287 47.4C141.587 47.4 140.987 47.4833 140.487 47.65C139.987 47.8167 139.603 48.1833 139.337 48.75C139.07 49.3167 138.937 50.1833 138.937 51.35V61.6C139.303 61.6333 139.687 61.6833 140.087 61.75C140.487 61.7833 140.903 61.8 141.337 61.8ZM162.414 79V75.7C163.181 75.6667 163.814 75.5667 164.314 75.4C164.847 75.2333 165.247 74.85 165.514 74.25C165.814 73.65 165.964 72.6833 165.964 71.35V52.2C165.964 51.3 165.981 50.4333 166.014 49.6C166.081 48.7667 166.131 48.1333 166.164 47.7C165.631 47.7333 164.964 47.7667 164.164 47.8C163.364 47.8 162.781 47.8167 162.414 47.85V44C164.781 43.9667 167.147 43.95 169.514 43.95C171.881 43.95 174.247 43.9333 176.614 43.9C179.547 43.8667 182.097 44.2 184.264 44.9C186.431 45.6 188.097 46.7333 189.264 48.3C190.431 49.8667 190.981 51.9833 190.914 54.65C190.881 56.05 190.531 57.3833 189.864 58.65C189.231 59.9167 188.264 61.0333 186.964 62C185.697 62.9667 184.081 63.7333 182.114 64.3C182.747 64.5667 183.364 65 183.964 65.6C184.597 66.2 185.131 66.8333 185.564 67.5L187.914 71C188.647 72.1333 189.297 73.0333 189.864 73.7C190.431 74.3667 190.997 74.8667 191.564 75.2C192.131 75.5 192.781 75.6667 193.514 75.7V79H185.264C184.664 78.5667 184.064 77.95 183.464 77.15C182.897 76.3167 182.281 75.3667 181.614 74.3L177.914 68.3C177.481 67.6333 177.097 67.0667 176.764 66.6C176.464 66.1333 176.147 65.7333 175.814 65.4C175.281 65.4 174.831 65.4 174.464 65.4C174.097 65.4 173.681 65.4 173.214 65.4V70.75C173.214 71.6833 173.197 72.5667 173.164 73.4C173.131 74.2333 173.081 74.8667 173.014 75.3C173.381 75.2667 173.847 75.25 174.414 75.25C174.981 75.2167 175.531 75.2 176.064 75.2C176.631 75.1667 177.031 75.15 177.264 75.15V79H162.414ZM175.614 61.8C177.481 61.8 178.981 61.5333 180.114 61C181.247 60.4333 182.064 59.6 182.564 58.5C183.097 57.3667 183.364 55.95 183.364 54.25C183.364 52.65 183.114 51.4 182.614 50.5C182.114 49.5667 181.481 48.8833 180.714 48.45C179.981 47.9833 179.231 47.7 178.464 47.6C177.697 47.4667 177.064 47.4 176.564 47.4C175.864 47.4 175.264 47.4833 174.764 47.65C174.264 47.8167 173.881 48.1833 173.614 48.75C173.347 49.3167 173.214 50.1833 173.214 51.35V61.6C173.581 61.6333 173.964 61.6833 174.364 61.75C174.764 61.7833 175.181 61.8 175.614 61.8ZM211.041 47.3C210.308 47.3333 209.675 47.4333 209.141 47.6C208.608 47.7667 208.191 48.15 207.891 48.75C207.625 49.3167 207.491 50.2833 207.491 51.65V70.8C207.491 71.7 207.475 72.5667 207.441 73.4C207.408 74.2333 207.358 74.8667 207.291 75.3C207.825 75.2333 208.491 75.2 209.291 75.2C210.125 75.1667 210.708 75.15 211.041 75.15V79H196.691V75.7C197.458 75.6667 198.091 75.5667 198.591 75.4C199.125 75.2333 199.525 74.85 199.791 74.25C200.091 73.65 200.241 72.6833 200.241 71.35V52.2C200.241 51.3 200.258 50.4333 200.291 49.6C200.358 48.7667 200.408 48.1333 200.441 47.7C199.908 47.7333 199.241 47.7667 198.441 47.8C197.641 47.8 197.058 47.8167 196.691 47.85V44H211.041V47.3ZM216.027 79V75.7C216.794 75.6667 217.427 75.5667 217.927 75.4C218.461 75.2333 218.861 74.85 219.127 74.25C219.427 73.65 219.577 72.6833 219.577 71.35V52.2C219.577 51.3 219.594 50.4333 219.627 49.6C219.694 48.7667 219.744 48.1333 219.777 47.7C219.244 47.7333 218.577 47.7667 217.777 47.8C216.977 47.8 216.394 47.8167 216.027 47.85V44H230.377V47.3C229.644 47.3333 229.011 47.4333 228.477 47.6C227.944 47.7667 227.527 48.15 227.227 48.75C226.961 49.3167 226.827 50.2833 226.827 51.65V70.8C226.827 71.7 226.811 72.55 226.777 73.35C226.744 74.15 226.694 74.7667 226.627 75.2H233.327C235.294 75.1667 236.827 74.4833 237.927 73.15C239.061 71.7833 239.627 69.7333 239.627 67H242.977L242.677 79H216.027ZM246.203 79V75.7C246.97 75.6667 247.603 75.5667 248.103 75.4C248.636 75.2333 249.036 74.85 249.303 74.25C249.603 73.65 249.753 72.6833 249.753 71.35V52.2C249.753 51.3 249.77 50.4333 249.803 49.6C249.87 48.7667 249.92 48.1333 249.953 47.7C249.42 47.7333 248.753 47.7667 247.953 47.8C247.153 47.8 246.57 47.8167 246.203 47.85V44H260.553V47.3C259.82 47.3333 259.186 47.4333 258.653 47.6C258.12 47.7667 257.703 48.15 257.403 48.75C257.136 49.3167 257.003 50.2833 257.003 51.65V70.8C257.003 71.7 256.986 72.55 256.953 73.35C256.92 74.15 256.87 74.7667 256.803 75.2H263.503C265.47 75.1667 267.003 74.4833 268.103 73.15C269.236 71.7833 269.803 69.7333 269.803 67H273.153L272.853 79H246.203ZM274.714 79V75.55C275.647 75.55 276.397 75.2833 276.964 74.75C277.53 74.2167 277.997 73.5167 278.364 72.65C278.764 71.7833 279.147 70.85 279.514 69.85L289.264 43.1H292.764L303.414 70.35C303.614 70.85 303.88 71.6167 304.214 72.65C304.547 73.65 304.747 74.5333 304.814 75.3C305.38 75.2333 305.914 75.2 306.414 75.2C306.947 75.1667 307.38 75.15 307.714 75.15V79H294.264V75.7C295.197 75.7 295.83 75.5167 296.164 75.15C296.53 74.75 296.697 74.2167 296.664 73.55C296.63 72.8833 296.447 72.1333 296.114 71.3L295.114 68.55L284.264 68.75L283.464 71.1C283.297 71.5333 283.047 72.1833 282.714 73.05C282.414 73.8833 282.13 74.5833 281.864 75.15C282.397 75.0833 283.03 75.05 283.764 75.05C284.53 75.0167 285.08 75 285.414 75V79H274.714ZM285.514 65H293.864L291.564 58.75C291.13 57.55 290.747 56.35 290.414 55.15C290.08 53.9167 289.83 52.8333 289.664 51.9H289.614C289.48 52.4667 289.28 53.3167 289.014 54.45C288.747 55.5833 288.33 56.9333 287.764 58.5L285.514 65Z" fill="#F6F3F7"/>
</svg>
